<svg id="Ebene_1" data-name="Ebene 1" xmlns="http://www.w3.org/2000/svg" viewBox="0 0 1309.77 2106.57"><defs><style>.cls-1,.cls-2,.cls-3{fill:none;stroke:#000;stroke-miterlimit:10;}.cls-1{stroke-width:3px;}.cls-2{stroke-width:2px;}.cls-3{stroke-width:4px;}</style></defs><path d="M82.56,55.61V156.15H57.44V55.61H18.71V36.2H121.38V55.61Z" transform="translate(-13.34 -27.56)"/><path d="M83.33,365.33a80.34,80.34,0,0,1-13.58-1V349a53.76,53.76,0,0,0,7.45.62q7.51,0,11.23-4.07t7.25-13.65L62.85,249.73H85.63l13.05,38.89q1.53,4.22,3.45,10.59t4.29,15q1.77-7,3.38-13t3.53-12.27l12.27-39.2h22.56L115.32,337.1a72.68,72.68,0,0,1-4.22,9.36,64.89,64.89,0,0,1-4.52,7.21,28,28,0,0,1-10.21,9A30,30,0,0,1,83.33,365.33Z" transform="translate(-13.34 -27.56)"/><path d="M237.55,290.84q0,20.79-8.32,32.11t-23.52,11.31q-18,0-25.16-14.73h-.46q.47,2.31.46,14v31.83H159v-96.5c0-3.94-.06-7.49-.16-10.67s-.26-6-.46-8.43h20.94a14.78,14.78,0,0,1,.5,3.1c.13,1.46.23,3.11.31,4.95s.11,3.66.11,5.45h.31a24.94,24.94,0,0,1,10.28-11.47q6.67-3.8,16.26-3.8,14.5,0,22.48,11.16T237.55,290.84Zm-22.48,0q0-13.95-4.25-20.94t-12.85-7a14.54,14.54,0,0,0-13.16,7.52q-4.56,7.51-4.57,21t4.57,20.75a14.48,14.48,0,0,0,13,7.32q8.67,0,13-7.17T215.07,290.84Z" transform="translate(-13.34 -27.56)"/><path d="M193.48,470.62q0,20.17-11.2,31.64t-31,11.47q-19.41,0-30.45-11.51t-11-31.6q0-20,11-31.49t30.91-11.47q20.33,0,31,11.08T193.48,470.62Zm-22.55,0q0-14.81-4.83-21.48t-14-6.68q-9.83,0-14.73,7t-4.91,21.14q0,13.88,4.79,21.13T151.06,499q10,0,14.92-7.1T170.93,470.62Z" transform="translate(-13.34 -27.56)"/><path d="M298.63,545.49q-15.19,0-24.44-5.79a24.37,24.37,0,0,1-11.39-16.53l21.56-2.54a13,13,0,0,0,4.95,7.83q3.79,2.84,9.93,2.84,9,0,13.12-5.53t4.14-16.41l.15-12.58h-.15a24.56,24.56,0,0,1-10.2,11.47Q299.63,512,289.81,512q-14.51,0-22.48-10.89t-8-31.15q0-20.33,8.21-31.37t23.86-11.05q9,0,15.3,3.72a24.93,24.93,0,0,1,9.78,11.24h.39c0-1.23.05-2.76.15-4.6s.24-3.61.42-5.3a31.43,31.43,0,0,1,.5-3.45h20.41q-.47,8.28-.47,19.18v61.29q0,17.73-10,26.78T298.63,545.49Zm18-75.95q0-12.81-4.56-20a14.54,14.54,0,0,0-13-7.17q-8.59,0-12.93,6.9T281.83,470q0,13.5,4.25,20.29t12.85,6.79a14.68,14.68,0,0,0,13.16-7.17Q316.65,482.74,316.65,469.54Z" transform="translate(-13.34 -27.56)"/><path d="M379.94,471.46V512.2H358.38V448.68q0-6.82-.19-11.4t-.42-8.09h20.56a27,27,0,0,1,.3,3.07c.1,1.59.21,3.36.31,5.33s.19,3.83.27,5.56.11,3,.11,3.76h.31q3.08-8.58,5.6-12.35a15.45,15.45,0,0,1,5.83-5.29,18.71,18.71,0,0,1,8.44-1.69,16.21,16.21,0,0,1,6.67,1.15v18a42.34,42.34,0,0,0-9.2-1.15,14.36,14.36,0,0,0-12.54,6.52Q379.93,458.66,379.94,471.46Z" transform="translate(-13.34 -27.56)"/><path d="M217.86,694.91q-12,0-18.8-6.56t-6.75-18.45q0-12.89,8.4-19.56t24.36-7l17.87-.31v-4.22q0-8.13-2.84-12.08t-9.28-4q-6,0-8.78,2.72t-3.49,9l-22.48-1.07q4.22-24.63,35.67-24.63,15.73,0,24.24,7.75t8.52,22v30.23q0,7,1.57,9.62t5.26,2.65a23.91,23.91,0,0,0,4.75-.46V692.3q-4,1-6.82,1.5a41.69,41.69,0,0,1-7,.49q-8.13,0-12-4t-4.64-11.74h-.46a31.89,31.89,0,0,1-11.36,12.23A30.33,30.33,0,0,1,217.86,694.91Zm25.08-40-11,.15q-7.6.39-10.67,1.61a10.21,10.21,0,0,0-4.79,4.15,14.25,14.25,0,0,0-1.65,7.36q0,5.91,2.72,8.79a9.54,9.54,0,0,0,7.25,2.87,16.58,16.58,0,0,0,9.28-2.76,18.77,18.77,0,0,0,6.52-7.63,23.18,23.18,0,0,0,2.38-10.32Z" transform="translate(-13.34 -27.56)"/><path d="M419.45,651.49q0,20.79-8.32,32.1t-23.51,11.32q-18,0-25.17-14.73H362q.47,2.3.46,14V726H340.9V629.47c0-3.94-.06-7.49-.16-10.66s-.25-6-.46-8.44h21a15.07,15.07,0,0,1,.49,3.11c.13,1.45.23,3.1.31,4.94s.12,3.66.12,5.45h.3a25,25,0,0,1,10.28-11.47q6.67-3.79,16.27-3.8,14.49,0,22.47,11.17T419.45,651.49Zm-22.48,0q0-14-4.25-21t-12.85-7a14.54,14.54,0,0,0-13.16,7.52q-4.56,7.51-4.56,21t4.56,20.75a14.47,14.47,0,0,0,13,7.33q8.67,0,13-7.17T397,651.49Z" transform="translate(-13.34 -27.56)"/><path d="M458.57,626.94q4.37-9.51,11-13.81a28.21,28.21,0,0,1,15.72-4.3q13.2,0,20.26,8.14t7.05,23.78v52.62H491.09V646.88q0-11-3.68-16.41T476.29,625a14.81,14.81,0,0,0-12.62,6.71q-4.8,6.72-4.8,17.23v44.41H437.32V579.53h21.55V610.6c0,1.84,0,3.68-.07,5.52s-.12,3.66-.19,5.45-.2,3.58-.35,5.37Z" transform="translate(-13.34 -27.56)"/><path d="M598.7,579.53v15.88H577.15V579.53Zm0,30.84v83H577.15v-83Z" transform="translate(-13.34 -27.56)"/><path d="M479.15,872.65q-18.87,0-29.15-11.24t-10.28-31.34q0-20.55,10.35-32t29.39-11.47q14.64,0,24.24,7.36t12,20.33L494,815.35a17.81,17.81,0,0,0-4.6-10.17q-3.69-3.79-10.43-3.8-8.37,0-12.51,7t-4.14,20.9q0,14.34,4.26,21.52a13.83,13.83,0,0,0,12.69,7.17,14.48,14.48,0,0,0,10.28-3.87q4.14-3.87,5.14-11.55l21.63,1a31.32,31.32,0,0,1-6.17,15.3,33.7,33.7,0,0,1-13,10.21A42.92,42.92,0,0,1,479.15,872.65Z" transform="translate(-13.34 -27.56)"/><path d="M441.26,1016.83q0,15.87-11.78,24.28t-34.56,8.4q-41,0-47.79-29.69l21.86-3.61q2.24,8.6,8.67,12.47t17.88,3.87q11.88,0,17.79-3.6a11.85,11.85,0,0,0,5.91-10.82,10.92,10.92,0,0,0-2.68-7.59,20.14,20.14,0,0,0-7.67-5,59.87,59.87,0,0,0-7.22-2.19q-4.76-1.18-11.81-2.64-8.13-1.92-12.73-3.26a56.88,56.88,0,0,1-7.37-2.61,59.43,59.43,0,0,1-5.37-2.8,24.54,24.54,0,0,1-9-9.21q-3.23-5.75-3.23-14.34,0-14.65,11-22.44t32-7.79q20.1,0,30.19,6.29t13,20.79l-21.94,3a17,17,0,0,0-6.87-10.51q-5.17-3.52-14.84-3.52-10.27,0-15.42,3.22a11.78,11.78,0,0,0-3,16.57,17.13,17.13,0,0,0,6.48,4.6q4.06,1.84,17.41,4.68,7.75,1.7,13.35,3.18a77.93,77.93,0,0,1,9,2.88,49.53,49.53,0,0,1,6,3.07A26.16,26.16,0,0,1,433.2,996a25.27,25.27,0,0,1,6,8.94A32,32,0,0,1,441.26,1016.83Z" transform="translate(-13.34 -27.56)"/><path d="M511.92,1031.48q-4.29,9.43-10.93,13.73a28.31,28.31,0,0,1-15.76,4.3q-13.2,0-20.25-8.09t-7.06-23.75V965h21.55v46.56q0,10.9,3.69,16.38t11,5.49a14.81,14.81,0,0,0,12.62-6.71q4.8-6.72,4.8-17.23V965h21.55v64.44q0,5.29.16,9.93t.46,8.63H513.23q-.47-5.52-.69-9.66c-.16-2.76-.23-5-.23-6.83Z" transform="translate(-13.34 -27.56)"/><path d="M914.35,1003.48V1048H892.79V983.53q0-6.67-.19-10.93t-.42-7.63h20.56c.1.61.23,2.06.38,4.33s.3,4.61.42,7,.2,4.11.2,5.18h.3q4-9.51,9.94-13.81a23.64,23.64,0,0,1,14.23-4.29q9.51,0,15.3,4.52t7.79,13.58h.46q4.22-9.66,10.12-13.88t15-4.22q12.12,0,18.49,8.24t6.37,23.67V1048H990.37v-46.56q0-11-3.14-16.42a10.24,10.24,0,0,0-9.44-5.45q-6.28,0-10.51,6.1t-4.22,16.84V1048h-21.4v-46.56q0-11-3.15-16.42a10.22,10.22,0,0,0-9.43-5.45q-6.52,0-10.63,6.68T914.35,1003.48Z" transform="translate(-13.34 -27.56)"/><path d="M720.09,1003.48V1048H698.53V983.53q0-6.67-.19-10.93t-.42-7.63h20.56c.1.61.23,2.06.38,4.33s.29,4.61.42,7,.19,4.1.19,5.17h.31q4-9.51,9.93-13.81A23.7,23.7,0,0,1,744,963.36q9.51,0,15.3,4.52T767,981.46h.46q4.21-9.66,10.12-13.88t15-4.22q12.12,0,18.49,8.25t6.36,23.66V1048h-21.4v-46.56q0-11-3.14-16.42a10.23,10.23,0,0,0-9.44-5.44q-6.28,0-10.51,6.09t-4.22,16.84V1048H747.4v-46.56q0-11-3.15-16.42a10.22,10.22,0,0,0-9.43-5.44q-6.52,0-10.63,6.67T720.09,1003.48Z" transform="translate(-13.34 -27.56)"/><path d="M1056.33,1010.61q0,12.14,4.49,18.3t12.78,6.18a16.19,16.19,0,0,0,9.32-2.5,13.2,13.2,0,0,0,5.1-7.4l20.33,1.76q-8.83,22.56-35.83,22.56-18.72,0-28.77-11.09t-10-32.33q0-20.57,10.21-31.61t28.92-11.05q17.87,0,27.31,11.86t9.43,34.71v.61Zm32.38-13.5q-.62-10.05-4.83-15.07a14.08,14.08,0,0,0-11.36-5q-7.59,0-11.7,5.3t-4.33,14.8Z" transform="translate(-13.34 -27.56)"/><path d="M1198.66,1007.24V1048h-21.55V984.46c0-4.56-.07-8.35-.2-11.4s-.26-5.74-.42-8.09h20.56a25.89,25.89,0,0,1,.31,3.07c.1,1.58.2,3.36.31,5.33s.19,3.82.26,5.56.12,3,.12,3.76h.31q3.06-8.6,5.6-12.35a15.37,15.37,0,0,1,5.83-5.29,18.7,18.7,0,0,1,8.43-1.69,16.26,16.26,0,0,1,6.68,1.15v18a42.5,42.5,0,0,0-9.21-1.15,14.36,14.36,0,0,0-12.54,6.52Q1198.67,994.42,1198.66,1007.24Z" transform="translate(-13.34 -27.56)"/><path d="M113.93,1159.81a35.79,35.79,0,0,1-4.8,18.6,33,33,0,0,1-13.61,12.66q-8.83,4.56-21,4.56H47.65v38H25V1125.59H73.58q19.4,0,29.88,8.94T113.93,1159.81Zm-22.79.38q0-17-20.1-17H47.65v35.06h24q9.36,0,14.42-4.64T91.14,1160.19Z" transform="translate(-13.34 -27.56)"/><path d="M149.06,1193v40.73H127.51v-63.52c0-4.55-.07-8.35-.19-11.39s-.27-5.74-.43-8.09h20.56a23.81,23.81,0,0,1,.31,3.07c.1,1.58.2,3.36.31,5.33s.19,3.82.27,5.56.11,3,.11,3.76h.31q3.06-8.6,5.6-12.35a15.4,15.4,0,0,1,5.83-5.3,18.85,18.85,0,0,1,8.44-1.68,16.24,16.24,0,0,1,6.67,1.15v18a43,43,0,0,0-9.2-1.15,14.4,14.4,0,0,0-12.55,6.52Q149.07,1180.22,149.06,1193Z" transform="translate(-13.34 -27.56)"/><path d="M321.64,1192.28q0,20.17-11.2,31.65t-31,11.47q-19.4,0-30.45-11.51t-11.05-31.61q0-20,11.05-31.49t30.92-11.47q20.32,0,31,11.09T321.64,1192.28Zm-22.56,0q0-14.8-4.83-21.48t-14-6.67q-9.81,0-14.73,7t-4.91,21.13q0,13.89,4.8,21.14t13.84,7.25q10,0,14.93-7.1T299.08,1192.28Z" transform="translate(-13.34 -27.56)"/><path d="M280.11,1447.69q-15.19,0-24.43-5.79a24.39,24.39,0,0,1-11.4-16.53l21.56-2.54a13.09,13.09,0,0,0,5,7.83q3.79,2.83,9.93,2.84,9,0,13.12-5.53t4.14-16.41l.16-12.58H298a24.56,24.56,0,0,1-10.2,11.47q-6.67,3.79-16.49,3.79-14.51,0-22.48-10.89t-8-31.15q0-20.33,8.21-31.37t23.86-11q9,0,15.3,3.72a24.93,24.93,0,0,1,9.78,11.24h.39c0-1.23.05-2.76.15-4.6s.24-3.61.42-5.3a31.43,31.43,0,0,1,.5-3.45h20.41q-.47,8.29-.46,19.18v61.3q0,17.72-10.05,26.77T280.11,1447.69Zm18-76q0-12.81-4.57-20a14.53,14.53,0,0,0-13-7.17q-8.6,0-12.93,6.9t-4.33,20.71q0,13.52,4.26,20.3t12.85,6.78a14.67,14.67,0,0,0,13.15-7.17Q298.15,1384.94,298.14,1371.74Z" transform="translate(-13.34 -27.56)"/><path d="M357.65,1373.66v40.74H336.09v-63.52q0-6.83-.19-11.39c-.13-3-.27-5.74-.42-8.1H356a28.69,28.69,0,0,1,.31,3.07c.1,1.59.2,3.36.3,5.33s.2,3.83.27,5.56.12,3,.12,3.76h.3q3.07-8.58,5.6-12.35a15.45,15.45,0,0,1,5.83-5.29,18.74,18.74,0,0,1,8.44-1.69,16.43,16.43,0,0,1,6.68,1.15v18a42.5,42.5,0,0,0-9.21-1.15,14.36,14.36,0,0,0-12.54,6.52Q357.66,1360.86,357.65,1373.66Z" transform="translate(-13.34 -27.56)"/><path d="M471.54,1415.93q-12,0-18.79-6.56T446,1390.92q0-12.89,8.4-19.56t24.35-7l17.88-.31v-4.22q0-8.13-2.84-12.08t-9.28-4q-6,0-8.79,2.72t-3.49,9l-22.48-1.08q4.23-24.62,35.68-24.62,15.72,0,24.24,7.75t8.51,22v30.23q0,7,1.58,9.63c1,1.76,2.8,2.64,5.25,2.64a24,24,0,0,0,4.76-.46v11.66q-4,1-6.83,1.5a41.45,41.45,0,0,1-7,.5q-8.13,0-12-4t-4.64-11.74h-.46a32,32,0,0,1-11.35,12.24A30.45,30.45,0,0,1,471.54,1415.93Zm25.09-40-11.05.16q-7.59.38-10.66,1.61a10.17,10.17,0,0,0-4.8,4.14,14.28,14.28,0,0,0-1.65,7.36q0,5.91,2.73,8.79a9.48,9.48,0,0,0,7.24,2.87,16.64,16.64,0,0,0,9.29-2.76,18.93,18.93,0,0,0,6.52-7.63,23.31,23.31,0,0,0,2.38-10.32Z" transform="translate(-13.34 -27.56)"/><path d="M613.9,1369.9v44.5H592.34V1350c0-4.45-.07-8.1-.19-10.93s-.27-5.39-.42-7.64h20.55c.11.62.24,2.06.39,4.34s.29,4.6.42,7,.19,4.1.19,5.18h.31q4-9.53,9.93-13.81a23.63,23.63,0,0,1,14.23-4.3q9.51,0,15.31,4.53t7.78,13.58h.47q4.22-9.67,10.12-13.89t15-4.22q12.12,0,18.49,8.25t6.36,23.66v52.71h-21.4v-46.57q0-11-3.15-16.42a10.21,10.21,0,0,0-9.43-5.44q-6.3,0-10.51,6.1t-4.22,16.84v45.49h-21.4v-46.57q0-11-3.15-16.42a10.22,10.22,0,0,0-9.44-5.44q-6.51,0-10.62,6.67T613.9,1369.9Z" transform="translate(-13.34 -27.56)"/><path d="M976.33,1308.15l80.5,80.5-15.25,15.24-80.5-80.5Z" transform="translate(-13.34 -27.56)"/><path d="M76.63,1546l-13.35,50.47H40.5l-21.48-83H39.27l10.59,49.1q.77,3.52,1.53,7.13l1.53,7.21c.51-2.45,1-4.91,1.38-7.36a69.72,69.72,0,0,1,1.62-7.29l13-48.79H92.05l12.73,48.79q.54,2,1.34,5.64t1.81,9c.56-2.45,1.11-4.9,1.65-7.32s1.06-4.88,1.57-7.33L122,1513.42h20l-21.79,83H97.42l-13.2-50.63q-.45-1.76-1.38-6t-2.22-11q-1,4.31-1.92,8.59C78.09,1540.22,77.4,1543.08,76.63,1546Z" transform="translate(-13.34 -27.56)"/><path d="M179.7,1482.58v15.88H158.15v-15.88Zm0,30.84v83H158.15v-83Z" transform="translate(-13.34 -27.56)"/><path d="M372.83,1595.2a57.77,57.77,0,0,1-18.18,2.6q-9.51,0-14.65-5.17t-5.14-15.69V1528H324.35v-14.58h11.58l6.75-19.49h13.5v19.49h15.73V1528H356.18v43.11q0,6.06,2.31,8.94t7.13,2.87a37.49,37.49,0,0,0,7.21-1.07Z" transform="translate(-13.34 -27.56)"/><path d="M408.26,1530q4.37-9.51,11-13.81a28.21,28.21,0,0,1,15.72-4.3q13.2,0,20.26,8.14t7.05,23.78v52.62H440.78v-46.48q0-11-3.68-16.42T426,1528.07a14.81,14.81,0,0,0-12.62,6.71q-4.8,6.72-4.8,17.23v44.41H387V1482.58h21.55v31.07c0,1.84,0,3.68-.07,5.52s-.12,3.66-.19,5.45-.2,3.58-.35,5.37Z" transform="translate(-13.34 -27.56)"/><path d="M352.14,1718.88q0,17.34-6.72,29.61a46,46,0,0,1-18.56,18.76q-11.85,6.48-27.35,6.48H255.78V1665.64h39.13q27.32,0,42.27,13.77T352.14,1718.88Zm-22.79,0q0-17.42-9.05-26.58t-25.85-9.17h-16v73.11h19.17a30.46,30.46,0,0,0,16.84-4.56,30.13,30.13,0,0,0,11-12.93Q329.36,1730.4,329.35,1718.88Z" transform="translate(-13.34 -27.56)"/><path d="M438.94,1775.27q-12,0-18.8-6.56t-6.75-18.45q0-12.88,8.4-19.56t24.36-7l17.87-.3v-4.22q0-8.13-2.83-12.08t-9.29-4c-4,0-6.91.91-8.78,2.73s-3,4.82-3.49,9l-22.48-1.07q4.22-24.63,35.67-24.63,15.74,0,24.25,7.75t8.51,22v30.22q0,7,1.57,9.63t5.26,2.65a24.86,24.86,0,0,0,4.76-.46v11.66c-2.67.66-4.94,1.16-6.83,1.49a40.5,40.5,0,0,1-7,.5q-8.13,0-12-4t-4.64-11.73h-.46a31.94,31.94,0,0,1-11.35,12.23A30.39,30.39,0,0,1,438.94,1775.27Zm25.08-40-11,.15q-7.61.39-10.67,1.61a10.16,10.16,0,0,0-4.79,4.15,14.25,14.25,0,0,0-1.65,7.36q0,5.91,2.72,8.78a9.53,9.53,0,0,0,7.25,2.88,16.64,16.64,0,0,0,9.29-2.76,19,19,0,0,0,6.52-7.64,23.23,23.23,0,0,0,2.37-10.31Z" transform="translate(-13.34 -27.56)"/><path d="M537.92,1705.3v68.43H516.44V1705.3H504.32v-14.57h12.12v-8.67q0-11.28,6-16.73t18.18-5.44a83.26,83.26,0,0,1,13.66,1.23V1675a28.6,28.6,0,0,0-6.29-.69q-5.52,0-7.79,2.19t-2.26,7.71v6.52h16.34v14.57Z" transform="translate(-13.34 -27.56)"/><path d="M717.38,1659.89v15.88H695.83v-15.88Zm0,30.84v83H695.83v-83Z" transform="translate(-13.34 -27.56)"/><path d="M739,1912.37v39.43H716.35V1843.71H739v49l48.71-49h26.39l-46.18,45.72,49.94,62.37H791.15l-38.82-49.63Z" transform="translate(-13.34 -27.56)"/><path d="M882.32,1935.31q-4.3,9.43-10.94,13.73a28.37,28.37,0,0,1-15.76,4.3q-13.2,0-20.25-8.1t-7.06-23.74v-52.7h21.56v46.56q0,10.91,3.68,16.38t11.05,5.49a14.79,14.79,0,0,0,12.61-6.72q4.8-6.71,4.8-17.22V1868.8h21.56v64.44q0,5.29.15,9.93c.1,3.1.25,6,.46,8.63H883.62q-.47-5.52-.69-9.66t-.23-6.83ZM857.84,1843v16.8H841.43V1843Zm33.53,0v16.8H874.72V1843Z" transform="translate(-13.34 -27.56)"/><path d="M987.7,1885.37q4.38-9.51,11-13.81a28.22,28.22,0,0,1,15.73-4.3q13.19,0,20.25,8.14t7.06,23.78v52.62h-21.48v-46.49q0-11-3.69-16.41t-11.12-5.45a14.84,14.84,0,0,0-12.62,6.71q-4.78,6.72-4.79,17.23v44.41H966.45V1838H988V1869c0,1.84,0,3.68-.08,5.52s-.11,3.66-.19,5.45-.19,3.58-.35,5.37Z" transform="translate(-13.34 -27.56)"/><path d="M1021.51,2085.41v44.49H1000v-64.44c0-4.45-.07-8.09-.19-10.93s-.27-5.38-.43-7.63h20.56c.11.61.23,2.06.39,4.33s.29,4.6.42,7,.19,4.11.19,5.18h.31q4.36-9.51,11-13.81a28.2,28.2,0,0,1,15.72-4.29q13.2,0,20.26,8.13t7.06,23.78v52.7h-21.49v-46.56q0-11-3.68-16.42t-11.12-5.45a14.81,14.81,0,0,0-12.62,6.72Q1021.5,2074.89,1021.51,2085.41Z" transform="translate(-13.34 -27.56)"/><path d="M1115,2092.54q0,12.12,4.49,18.3t12.77,6.17a16.16,16.16,0,0,0,9.32-2.49,13.1,13.1,0,0,0,5.1-7.4l20.33,1.76q-8.82,22.56-35.82,22.56-18.72,0-28.77-11.09t-10-32.33q0-20.57,10.2-31.61t28.93-11q17.86,0,27.31,11.86t9.43,34.71v.61Zm32.38-13.5q-.61-10-4.84-15.07a14.06,14.06,0,0,0-11.35-5c-5.06,0-9,1.77-11.7,5.3s-4.18,8.46-4.33,14.8Z" transform="translate(-13.34 -27.56)"/><path d="M281.05,2041.54l-80.5,80.5-15.24-15.24,80.5-80.5Z" transform="translate(-13.34 -27.56)"/><path d="M629.23,226.36l80.49,80.5-15.24,15.25L614,241.61Z" transform="translate(-13.34 -27.56)"/><path d="M286,234.28a7.22,7.22,0,0,1-3.18,6.29q-3.18,2.24-8.95,2.23-10.74,0-12.45-7.46l3.86-.77a5.94,5.94,0,0,0,2.83,3.89,12,12,0,0,0,5.9,1.24,11.07,11.07,0,0,0,5.95-1.33,4.29,4.29,0,0,0,2.1-3.88,3.86,3.86,0,0,0-.66-2.34,4.92,4.92,0,0,0-1.84-1.48,14,14,0,0,0-2.84-1c-1.1-.26-2.31-.55-3.65-.85-1.54-.35-2.83-.69-3.86-1a15,15,0,0,1-2.56-1.06,10,10,0,0,1-1.71-1.18,6.51,6.51,0,0,1-1.59-2.23,7.19,7.19,0,0,1-.55-2.91,6.69,6.69,0,0,1,2.89-5.82q2.88-2,8.26-2,5,0,7.65,1.53a8.34,8.34,0,0,1,3.71,5.22l-3.92.69a5.35,5.35,0,0,0-2.46-3.39,10.06,10.06,0,0,0-5-1,10.16,10.16,0,0,0-5.38,1.17,3.83,3.83,0,0,0-1.85,3.48,3.49,3.49,0,0,0,.71,2.24,5.44,5.44,0,0,0,2.08,1.49,31.48,31.48,0,0,0,5.4,1.52c1.12.26,2.23.54,3.33.82a20.68,20.68,0,0,1,3.11,1.08,9.41,9.41,0,0,1,1.63.86,6.55,6.55,0,0,1,1.37,1.18,6.37,6.37,0,0,1,1.24,2.06A7.94,7.94,0,0,1,286,234.28Z" transform="translate(-13.34 -27.56)"/><path d="M292.64,231.9a9.67,9.67,0,0,0,1.61,6,5.52,5.52,0,0,0,4.69,2.11,7,7,0,0,0,3.91-1,4.87,4.87,0,0,0,2-2.48l3.29.94q-2,5.33-9.19,5.33-5,0-7.62-3c-1.74-2-2.62-4.94-2.62-8.86,0-3.72.88-6.58,2.62-8.56s4.24-3,7.47-3,5.81,1,7.47,3,2.48,5,2.48,9v.5ZM304.86,229a8.74,8.74,0,0,0-1.81-5.2,5.57,5.57,0,0,0-4.32-1.63,5.42,5.42,0,0,0-4.32,1.82,7.8,7.8,0,0,0-1.72,5Z" transform="translate(-13.34 -27.56)"/><path d="M329.37,236.15a5.68,5.68,0,0,1-2.41,4.92,11.33,11.33,0,0,1-6.74,1.73,12.6,12.6,0,0,1-6.49-1.38,6.55,6.55,0,0,1-3-4.33l3.32-.64a4.1,4.1,0,0,0,2,2.65,8.48,8.48,0,0,0,4.17.85,7.7,7.7,0,0,0,4.18-.88,2.93,2.93,0,0,0,1.32-2.62,2.79,2.79,0,0,0-.91-2.17,7.15,7.15,0,0,0-3-1.38c-1.61-.43-2.89-.78-3.84-1.06s-1.69-.52-2.2-.72a9.2,9.2,0,0,1-1.23-.57,6.45,6.45,0,0,1-2.15-1.94,5,5,0,0,1-.77-2.82,5.47,5.47,0,0,1,2.2-4.7,10.79,10.79,0,0,1,6.41-1.61,11.46,11.46,0,0,1,5.93,1.31A6,6,0,0,1,329,225l-3.37.42a3.41,3.41,0,0,0-1.68-2.31,7.25,7.25,0,0,0-3.66-.8,7.14,7.14,0,0,0-3.75.77,2.59,2.59,0,0,0-1.21,2.34,2.64,2.64,0,0,0,.69,1.88,5.36,5.36,0,0,0,2.62,1.22c1.74.42,3.39.88,5,1.37a12.38,12.38,0,0,1,3.37,1.47,5.93,5.93,0,0,1,1.81,2A5.85,5.85,0,0,1,329.37,236.15Z" transform="translate(-13.34 -27.56)"/><path d="M349.65,236.15a5.68,5.68,0,0,1-2.41,4.92,11.33,11.33,0,0,1-6.74,1.73,12.67,12.67,0,0,1-6.5-1.38,6.57,6.57,0,0,1-3-4.33l3.32-.64a4.1,4.1,0,0,0,2,2.65,8.48,8.48,0,0,0,4.17.85,7.72,7.72,0,0,0,4.18-.88,2.93,2.93,0,0,0,1.32-2.62,2.8,2.8,0,0,0-.92-2.17,7.1,7.1,0,0,0-3-1.38c-1.61-.43-2.89-.78-3.84-1.06s-1.69-.52-2.2-.72a8.14,8.14,0,0,1-1.23-.57,6.35,6.35,0,0,1-2.15-1.94,5,5,0,0,1-.77-2.82,5.47,5.47,0,0,1,2.2-4.7,10.79,10.79,0,0,1,6.41-1.61,11.48,11.48,0,0,1,5.93,1.31,6,6,0,0,1,2.78,4.21l-3.37.42a3.41,3.41,0,0,0-1.68-2.31,7.25,7.25,0,0,0-3.66-.8,7.14,7.14,0,0,0-3.75.77,2.59,2.59,0,0,0-1.21,2.34,2.64,2.64,0,0,0,.69,1.88,5.31,5.31,0,0,0,2.62,1.22q2.61.63,5,1.37a12.48,12.48,0,0,1,3.38,1.47,5.49,5.49,0,0,1,2.42,4.79Z" transform="translate(-13.34 -27.56)"/><path d="M356.73,211.45V215H353v-3.59Zm0,8.38v22.56H353V219.83Z" transform="translate(-13.34 -27.56)"/><path d="M380.49,231.09c0,3.95-.87,6.88-2.6,8.82s-4.26,2.89-7.57,2.89-5.78-1-7.46-3-2.53-4.91-2.53-8.7.85-6.81,2.54-8.76,4.21-2.92,7.57-2.92,6,1,7.61,2.85S380.49,227.1,380.49,231.09Zm-3.94,0c0-3.11-.46-5.38-1.38-6.79s-2.48-2.11-4.66-2.11a5.37,5.37,0,0,0-4.77,2.15q-1.47,2.16-1.47,6.75c0,3,.49,5.21,1.45,6.7a5.05,5.05,0,0,0,4.56,2.24q3.38,0,4.82-2.17T376.55,231.09Z" transform="translate(-13.34 -27.56)"/><path d="M387.93,229.32v13.07h-3.75V224.65q0-2,0-3.18c0-.8-.06-1.35-.1-1.64h3.55c0,.27,0,.6.07,1s0,.85.05,1.34,0,1,0,1.52h.07a8.21,8.21,0,0,1,3-3.31,8.47,8.47,0,0,1,4.22-1c2.47,0,4.28.64,5.43,1.9s1.72,3.28,1.72,6.05v15h-3.77v-14.3c0-2.16-.35-3.66-1.05-4.51a4.44,4.44,0,0,0-3.6-1.27,5.31,5.31,0,0,0-4.28,1.86A7.75,7.75,0,0,0,387.93,229.32Z" transform="translate(-13.34 -27.56)"/><path d="M421.32,211.45v30.94h-3.76V211.45Z" transform="translate(-13.34 -27.56)"/><path d="M269.34,289a8.72,8.72,0,0,1-5.94-1.93,9.78,9.78,0,0,1-2.92-5.79l3.9-.64a6.77,6.77,0,0,0,1.69,3.77,4.41,4.41,0,0,0,3.29,1.36,4.23,4.23,0,0,0,3.42-1.49A6.62,6.62,0,0,0,274,280V262.5h-5.65v-3.25H278v20.62a9.41,9.41,0,0,1-2.31,6.72A8.3,8.3,0,0,1,269.34,289Z" transform="translate(-13.34 -27.56)"/><path d="M297.23,284.76a8.28,8.28,0,0,1-3,3.31,8.47,8.47,0,0,1-4.22,1q-3.72,0-5.43-1.85t-1.72-6.09v-15h3.77v14.3c0,2.25.35,3.77,1.05,4.57a4.6,4.6,0,0,0,3.6,1.2,5.27,5.27,0,0,0,4.27-1.86,7.68,7.68,0,0,0,1.57-5.14V266.07h3.75v17.74c0,1.3,0,2.36,0,3.16s0,1.36.09,1.65h-3.54c0-.07,0-.4-.07-1s-.07-1.54-.1-2.88Z" transform="translate(-13.34 -27.56)"/><path d="M309.48,275.55v13.07h-3.75V270.88q0-2,0-3.18c0-.8-.05-1.34-.09-1.63h3.54c0,.26.05.59.07,1s0,.84.06,1.33,0,1,0,1.52h.06a8.25,8.25,0,0,1,3-3.3,8.36,8.36,0,0,1,4.22-1q3.72,0,5.43,1.9c1.15,1.26,1.72,3.28,1.72,6v15H320v-14.3c0-2.15-.35-3.65-1-4.5a4.44,4.44,0,0,0-3.61-1.27,5.29,5.29,0,0,0-4.27,1.85A7.71,7.71,0,0,0,309.48,275.55Z" transform="translate(-13.34 -27.56)"/><path d="M331.2,278.14a9.71,9.71,0,0,0,1.61,6,5.54,5.54,0,0,0,4.69,2.1,6.87,6.87,0,0,0,3.9-1,4.89,4.89,0,0,0,2-2.48l3.29.94q-2,5.34-9.19,5.34c-3.34,0-5.88-1-7.62-3s-2.62-4.94-2.62-8.86c0-3.73.87-6.58,2.62-8.57s4.23-3,7.47-3,5.81,1,7.46,3,2.48,5,2.48,9v.51Zm12.22-2.88a8.71,8.71,0,0,0-1.82-5.2,5.56,5.56,0,0,0-4.31-1.64,5.46,5.46,0,0,0-4.33,1.83,7.87,7.87,0,0,0-1.72,5Z" transform="translate(-13.34 -27.56)"/><path d="M380.58,285.43v3.19H362.17v-3.19h7.48v-22.6L363,267.57V264l7-4.77h3.46v26.18Z" transform="translate(-13.34 -27.56)"/><path d="M403.19,262.29q-2.25,3.45-3.85,6.13t-2.51,4.65a39.93,39.93,0,0,0-2.78,7.69,32.9,32.9,0,0,0-.93,7.86H389.2a29.63,29.63,0,0,1,.61-5.93,35.6,35.6,0,0,1,1.93-6.33,59.78,59.78,0,0,1,3.18-6.55q1.93-3.45,4.64-7.37H383.78v-3.19h19.41Z" transform="translate(-13.34 -27.56)"/><path d="M416.59,275.61V279H406.17v-3.34Z" transform="translate(-13.34 -27.56)"/><path d="M439.29,280.51a7.89,7.89,0,0,1-2.59,6.3c-1.72,1.48-4.18,2.23-7.38,2.23a11.53,11.53,0,0,1-7.12-2,8.45,8.45,0,0,1-3.16-6l3.88-.35q.75,5.2,6.4,5.21a6.54,6.54,0,0,0,4.45-1.4,5.16,5.16,0,0,0,1.62-4.14,4.36,4.36,0,0,0-1.85-3.74,8.91,8.91,0,0,0-5.32-1.35h-2.13v-3.25h2a7.54,7.54,0,0,0,4.79-1.35,4.47,4.47,0,0,0,1.7-3.72,5,5,0,0,0-1.39-3.72,5.64,5.64,0,0,0-4.12-1.36,6.06,6.06,0,0,0-4,1.27,5.14,5.14,0,0,0-1.78,3.58l-3.78-.29a8,8,0,0,1,3-5.63,12.18,12.18,0,0,1,13.48,0,7.05,7.05,0,0,1,2.45,5.73,6.59,6.59,0,0,1-1.57,4.57,8.16,8.16,0,0,1-4.58,2.39v.08a8.23,8.23,0,0,1,5.13,2.21A6.4,6.4,0,0,1,439.29,280.51Z" transform="translate(-13.34 -27.56)"/><path d="M462.17,273.92q0,7.36-2.6,11.24a9.47,9.47,0,0,1-15.27,0q-2.54-3.85-2.54-11.26,0-7.56,2.47-11.34t7.81-3.77q5.19,0,7.66,3.82T462.17,273.92Zm-3.82,0a31,31,0,0,0-.63-6.91,7.43,7.43,0,0,0-2-3.9,5.26,5.26,0,0,0-3.65-1.26,5.59,5.59,0,0,0-3.73,1.23,7.27,7.27,0,0,0-2.1,3.89,29.82,29.82,0,0,0-.65,6.95,28.66,28.66,0,0,0,.67,6.84,7.66,7.66,0,0,0,2.1,3.94A5.2,5.2,0,0,0,452,286a5.11,5.11,0,0,0,4.85-3Q458.35,280.06,458.35,273.92Z" transform="translate(-13.34 -27.56)"/><path d="M282.57,332.11v3.19H263.12v-2.65a18.87,18.87,0,0,1,2.58-4.31,27.3,27.3,0,0,1,3.22-3.38c1.14-1,2.26-1.93,3.38-2.79.55-.43,1.08-.86,1.57-1.3s1-.86,1.41-1.29a12.43,12.43,0,0,0,2.15-2.71,6.24,6.24,0,0,0,.83-3.21,4.92,4.92,0,0,0-1.42-3.75,5.53,5.53,0,0,0-3.94-1.33,5.91,5.91,0,0,0-3.95,1.3,5.34,5.34,0,0,0-1.82,3.66l-3.84-.36a8.1,8.1,0,0,1,3-5.6,10.19,10.19,0,0,1,6.62-2.09q4.44,0,6.83,2.1a7.49,7.49,0,0,1,2.38,6,8.06,8.06,0,0,1-.78,3.4,13.32,13.32,0,0,1-2.32,3.37c-.52.56-1.27,1.27-2.25,2.15s-2.21,1.9-3.65,3.08a35.73,35.73,0,0,0-3.82,3.54,11.51,11.51,0,0,0-2,3Z" transform="translate(-13.34 -27.56)"/><path d="M305.73,320.6q0,7.36-2.6,11.24a8.63,8.63,0,0,1-7.66,3.88,8.52,8.52,0,0,1-7.61-3.86q-2.53-3.86-2.54-11.26,0-7.56,2.47-11.34t7.81-3.77q5.19,0,7.66,3.82T305.73,320.6Zm-3.82,0a31,31,0,0,0-.63-6.91,7.44,7.44,0,0,0-2-3.91,5.26,5.26,0,0,0-3.64-1.25,5.52,5.52,0,0,0-3.73,1.23,7.27,7.27,0,0,0-2.1,3.89,29.75,29.75,0,0,0-.66,7,28.6,28.6,0,0,0,.68,6.84,7.66,7.66,0,0,0,2.1,3.94,5.19,5.19,0,0,0,3.62,1.27,5.12,5.12,0,0,0,4.86-3Q301.91,326.74,301.91,320.6Z" transform="translate(-13.34 -27.56)"/><path d="M328,332.11v3.19H309.58v-3.19h7.48v-22.6l-6.63,4.74V310.7l6.95-4.77h3.46v26.18Z" transform="translate(-13.34 -27.56)"/><path d="M350.89,327.11a8,8,0,0,1-2.58,6.33q-2.6,2.28-7.42,2.28a11.14,11.14,0,0,1-7.37-2.23,7.8,7.8,0,0,1-2.66-6.34,7.27,7.27,0,0,1,1.65-4.84,6.7,6.7,0,0,1,4.21-2.37v-.09a6.3,6.3,0,0,1-3.79-2.44,7.2,7.2,0,0,1-1.38-4.39,6.7,6.7,0,0,1,2.51-5.44,10.21,10.21,0,0,1,6.74-2.09,10.55,10.55,0,0,1,6.85,2,6.78,6.78,0,0,1,2.51,5.53,7.17,7.17,0,0,1-1.39,4.4,6.08,6.08,0,0,1-3.82,2.35v.09a6.79,6.79,0,0,1,4.38,2.38A7.45,7.45,0,0,1,350.89,327.11Zm-3.9-.36a5.1,5.1,0,0,0-1.62-4.11,6.82,6.82,0,0,0-4.57-1.39,6.32,6.32,0,0,0-4.46,1.49,5.31,5.31,0,0,0-1.6,4.1,6.06,6.06,0,0,0,1.55,4.54,7.83,7.83,0,0,0,9.2.05Q347,330,347,326.75Zm-.73-13.48q0-5-5.46-5t-5.42,5a5,5,0,0,0,1.43,3.84,5.73,5.73,0,0,0,4,1.33,6,6,0,0,0,4-1.22A5,5,0,0,0,346.26,313.27Z" transform="translate(-13.34 -27.56)"/><path d="M442.84,417.26v3.19H423.39v-2.64a18.73,18.73,0,0,1,2.58-4.32,26.58,26.58,0,0,1,3.22-3.38q1.71-1.5,3.37-2.79c.56-.43,1.08-.86,1.58-1.29s1-.86,1.4-1.29A13,13,0,0,0,437.7,402a6.29,6.29,0,0,0,.82-3.21,4.92,4.92,0,0,0-1.41-3.76,5.53,5.53,0,0,0-3.94-1.33,5.91,5.91,0,0,0-3.95,1.3,5.35,5.35,0,0,0-1.83,3.66l-3.83-.35a8.14,8.14,0,0,1,3-5.61,10.19,10.19,0,0,1,6.62-2.09q4.44,0,6.82,2.1a7.47,7.47,0,0,1,2.39,5.95,8.06,8.06,0,0,1-.78,3.4,13.82,13.82,0,0,1-2.32,3.38c-.52.55-1.27,1.27-2.26,2.14s-2.2,1.91-3.64,3.09a34.76,34.76,0,0,0-3.82,3.53,11.51,11.51,0,0,0-2,3Z" transform="translate(-13.34 -27.56)"/><path d="M469.39,404.51l-4.09,15.94H461l-6.32-22.55h3.71l3.88,15.61c.11.45.24,1,.4,1.69s.29,1.4.43,2.15c.16-.66.31-1.31.47-2s.33-1.3.49-1.94l4.11-15.55h4l3.94,15.49c.17.65.33,1.31.49,2s.32,1.32.47,2c.15-.67.31-1.37.47-2.1s.31-1.37.45-1.93l4-15.42h3.67l-6.46,22.55h-4.36l-3.94-15.94c-.14-.59-.27-1.17-.39-1.77s-.24-1.17-.36-1.76l-.3,1.56C469.69,403.27,469.54,403.92,469.39,404.51Z" transform="translate(-13.34 -27.56)"/><path d="M490.23,410a9.69,9.69,0,0,0,1.61,6,5.54,5.54,0,0,0,4.69,2.11,7,7,0,0,0,3.9-1,4.93,4.93,0,0,0,2-2.48l3.29.93q-2,5.34-9.19,5.34-5,0-7.62-3T486.29,409q0-5.58,2.62-8.57c1.74-2,4.23-3,7.47-3s5.81,1,7.46,3,2.48,5,2.48,9v.5Zm12.22-2.88a8.71,8.71,0,0,0-1.82-5.2,5.56,5.56,0,0,0-4.31-1.64,5.46,5.46,0,0,0-4.33,1.83,7.87,7.87,0,0,0-1.72,5Z" transform="translate(-13.34 -27.56)"/><path d="M512.91,410a9.69,9.69,0,0,0,1.6,6,5.54,5.54,0,0,0,4.69,2.11,7,7,0,0,0,3.91-1,4.91,4.91,0,0,0,2-2.48l3.29.93q-2,5.34-9.19,5.34-5,0-7.62-3T509,409q0-5.58,2.61-8.57a9.46,9.46,0,0,1,7.48-3c3.32,0,5.8,1,7.46,3s2.48,5,2.48,9v.5Zm12.21-2.88a8.72,8.72,0,0,0-1.81-5.2,5.57,5.57,0,0,0-4.32-1.64,5.43,5.43,0,0,0-4.32,1.83,7.76,7.76,0,0,0-1.72,5Z" transform="translate(-13.34 -27.56)"/><path d="M536.46,412.43v8h-3.75V389.52h3.75v19.32l9.9-10.94h4.4l-9.15,9.69,9.63,12.86h-4.4l-7.63-10.29Z" transform="translate(-13.34 -27.56)"/><path d="M569.91,414.22a5.68,5.68,0,0,1-2.41,4.92,11.4,11.4,0,0,1-6.74,1.73,12.5,12.5,0,0,1-6.49-1.39,6.51,6.51,0,0,1-3-4.32l3.32-.65a4.1,4.1,0,0,0,2,2.66,8.6,8.6,0,0,0,4.17.84,7.8,7.8,0,0,0,4.18-.87,2.94,2.94,0,0,0,1.32-2.63,2.8,2.8,0,0,0-.91-2.17,7.28,7.28,0,0,0-3-1.37c-1.61-.43-2.89-.79-3.84-1.06s-1.69-.52-2.2-.72a10.49,10.49,0,0,1-1.23-.58,6.34,6.34,0,0,1-2.15-1.94,4.94,4.94,0,0,1-.77-2.81,5.46,5.46,0,0,1,2.2-4.7c1.47-1.08,3.6-1.62,6.41-1.62a11.45,11.45,0,0,1,5.93,1.32,6,6,0,0,1,2.78,4.21l-3.37.41a3.39,3.39,0,0,0-1.68-2.3,7.25,7.25,0,0,0-3.66-.8,7.14,7.14,0,0,0-3.75.77,2.56,2.56,0,0,0-1.21,2.33,2.65,2.65,0,0,0,.69,1.89,5.45,5.45,0,0,0,2.62,1.22c1.74.42,3.39.87,5,1.37a12.38,12.38,0,0,1,3.37,1.47,5.93,5.93,0,0,1,1.81,2A5.85,5.85,0,0,1,569.91,414.22Z" transform="translate(-13.34 -27.56)"/><path d="M438.91,464.45v3.19H420.5v-3.19H428v-22.6l-6.63,4.73V443l6.95-4.78h3.46v26.19Z" transform="translate(-13.34 -27.56)"/><path d="M461.52,464.45v3.19H442.07V465a18.73,18.73,0,0,1,2.58-4.32,26.48,26.48,0,0,1,3.22-3.37q1.71-1.5,3.37-2.8c.56-.43,1.08-.86,1.58-1.29s1-.86,1.4-1.29a12.72,12.72,0,0,0,2.16-2.71,6.29,6.29,0,0,0,.83-3.21,4.92,4.92,0,0,0-1.42-3.75,5.53,5.53,0,0,0-3.94-1.34,5.92,5.92,0,0,0-4,1.31,5.31,5.31,0,0,0-1.83,3.65l-3.83-.35a8.14,8.14,0,0,1,3-5.61,10.18,10.18,0,0,1,6.62-2.08q4.44,0,6.82,2.09a7.47,7.47,0,0,1,2.39,5.95,8,8,0,0,1-.78,3.4,13.63,13.63,0,0,1-2.32,3.38c-.52.55-1.27,1.27-2.26,2.15s-2.2,1.9-3.64,3.08a35.77,35.77,0,0,0-3.82,3.53,11.39,11.39,0,0,0-2,3Z" transform="translate(-13.34 -27.56)"/><path d="M493.2,461.4a5.7,5.7,0,0,1-2.41,4.92,11.35,11.35,0,0,1-6.74,1.73,12.64,12.64,0,0,1-6.5-1.38,6.57,6.57,0,0,1-3-4.33l3.32-.64a4.1,4.1,0,0,0,2,2.65,8.48,8.48,0,0,0,4.17.85,7.72,7.72,0,0,0,4.18-.88,2.93,2.93,0,0,0,1.32-2.62,2.8,2.8,0,0,0-.92-2.17,7.1,7.1,0,0,0-3-1.38c-1.61-.43-2.89-.78-3.84-1.06s-1.69-.52-2.2-.72a8.14,8.14,0,0,1-1.23-.57,6.35,6.35,0,0,1-2.15-1.94,5,5,0,0,1-.77-2.82,5.47,5.47,0,0,1,2.2-4.7q2.19-1.6,6.41-1.61A11.48,11.48,0,0,1,490,446a6,6,0,0,1,2.78,4.21l-3.38.42a3.36,3.36,0,0,0-1.67-2.31,7.25,7.25,0,0,0-3.66-.8,7.14,7.14,0,0,0-3.75.77,2.59,2.59,0,0,0-1.21,2.34,2.68,2.68,0,0,0,.68,1.88,5.4,5.4,0,0,0,2.63,1.22q2.61.63,5,1.37a12.48,12.48,0,0,1,3.38,1.47,5.49,5.49,0,0,1,2.42,4.79Z" transform="translate(-13.34 -27.56)"/><path d="M505.22,467.47a14.49,14.49,0,0,1-3.79.5,4.28,4.28,0,0,1-3.38-1.28,5.67,5.67,0,0,1-1.13-3.83V447.81h-2.6v-2.73h2.75l1.1-5h2.51v5h4.17v2.73h-4.17v14.24a3.67,3.67,0,0,0,.53,2.28,2.24,2.24,0,0,0,1.84.66,12.69,12.69,0,0,0,2.17-.29Z" transform="translate(-13.34 -27.56)"/><path d="M521.6,463.78a8.18,8.18,0,0,1-3,3.3,8.36,8.36,0,0,1-4.22,1c-2.47,0-4.29-.61-5.43-1.84s-1.72-3.26-1.72-6.1v-15H511v14.3c0,2.25.35,3.78,1,4.58a4.6,4.6,0,0,0,3.6,1.2,5.27,5.27,0,0,0,4.27-1.86,7.71,7.71,0,0,0,1.57-5.15V445.08h3.75v17.74c0,1.31,0,2.36,0,3.17s.05,1.35.09,1.65h-3.54c0-.07,0-.4-.07-1s-.07-1.55-.1-2.88Z" transform="translate(-13.34 -27.56)"/><path d="M544.55,467.64c0-.16-.06-.44-.1-.87s-.06-.89-.08-1.41,0-1,0-1.35h-.08a6.75,6.75,0,0,1-2.77,3.11,8.83,8.83,0,0,1-4.26.93q-4.28,0-6.28-2.87t-2-8.72c0-3.93.7-6.88,2.08-8.85a7.12,7.12,0,0,1,6.22-2.95,8.82,8.82,0,0,1,4.27.94,6.86,6.86,0,0,1,2.76,3h0l0-2.52V436.7H548V463c0,1.18,0,2.16,0,2.93s.05,1.34.09,1.72Zm-11.68-11.3q0,4.73,1.26,6.77a4.37,4.37,0,0,0,4.06,2.05,5.12,5.12,0,0,0,4.63-2.21c1-1.48,1.44-3.76,1.44-6.86s-.48-5.18-1.44-6.57a5.18,5.18,0,0,0-4.59-2.08,4.41,4.41,0,0,0-4.09,2.09Q532.87,451.63,532.87,456.34Z" transform="translate(-13.34 -27.56)"/><path d="M555.57,457.15a9.67,9.67,0,0,0,1.61,6,5.52,5.52,0,0,0,4.69,2.11,6.93,6.93,0,0,0,3.9-1,4.89,4.89,0,0,0,2-2.48l3.29.94q-2,5.32-9.19,5.33-5,0-7.62-3t-2.62-8.86c0-3.72.87-6.58,2.62-8.56s4.23-3,7.47-3,5.81,1,7.46,3,2.48,5,2.48,9v.5Zm12.22-2.88a8.74,8.74,0,0,0-1.82-5.2,5.56,5.56,0,0,0-4.31-1.63,5.46,5.46,0,0,0-4.33,1.82,7.92,7.92,0,0,0-1.72,5Z" transform="translate(-13.34 -27.56)"/><path d="M579.21,454.57v13.07h-3.76V449.9q0-2,0-3.18c0-.8,0-1.35-.09-1.64h3.54c0,.27,0,.6.08,1s0,.85,0,1.34,0,1,0,1.52h.06a8.28,8.28,0,0,1,3-3.31,8.5,8.5,0,0,1,4.22-1c2.48,0,4.29.64,5.43,1.9s1.72,3.28,1.72,6.05v15h-3.77v-14.3c0-2.16-.35-3.66-1-4.51a4.47,4.47,0,0,0-3.61-1.27,5.29,5.29,0,0,0-4.27,1.86A7.75,7.75,0,0,0,579.21,454.57Z" transform="translate(-13.34 -27.56)"/><path d="M606.72,467.47a14.57,14.57,0,0,1-3.8.5,4.26,4.26,0,0,1-3.37-1.28,5.67,5.67,0,0,1-1.13-3.83V447.81h-2.6v-2.73h2.75l1.1-5h2.5v5h4.17v2.73h-4.17v14.24a3.67,3.67,0,0,0,.54,2.28,2.22,2.22,0,0,0,1.84.66,12.69,12.69,0,0,0,2.17-.29Z" transform="translate(-13.34 -27.56)"/><path d="M625.77,461.4a5.7,5.7,0,0,1-2.41,4.92,11.37,11.37,0,0,1-6.75,1.73,12.63,12.63,0,0,1-6.49-1.38,6.57,6.57,0,0,1-3-4.33l3.32-.64a4.1,4.1,0,0,0,2,2.65,8.46,8.46,0,0,0,4.16.85,7.67,7.67,0,0,0,4.18-.88,2.92,2.92,0,0,0,1.33-2.62,2.8,2.8,0,0,0-.92-2.17,7.1,7.1,0,0,0-3-1.38c-1.61-.43-2.89-.78-3.84-1.06s-1.69-.52-2.2-.72a8.14,8.14,0,0,1-1.23-.57,6.35,6.35,0,0,1-2.15-1.94,4.9,4.9,0,0,1-.77-2.82,5.47,5.47,0,0,1,2.2-4.7q2.19-1.6,6.41-1.61a11.51,11.51,0,0,1,5.93,1.31,6,6,0,0,1,2.78,4.21l-3.38.42a3.38,3.38,0,0,0-1.68-2.31,9.13,9.13,0,0,0-7.41,0,2.61,2.61,0,0,0-1.2,2.34,2.64,2.64,0,0,0,.68,1.88,5.4,5.4,0,0,0,2.63,1.22q2.61.63,5,1.37a12.48,12.48,0,0,1,3.38,1.47,5.49,5.49,0,0,1,2.42,4.79Z" transform="translate(-13.34 -27.56)"/><path d="M445.06,512v3.19H425.61v-2.64a18.73,18.73,0,0,1,2.58-4.32,26.58,26.58,0,0,1,3.22-3.38c1.14-1,2.26-1.93,3.38-2.79.55-.43,1.08-.86,1.57-1.29s1-.86,1.41-1.29a12.92,12.92,0,0,0,2.15-2.71,6.29,6.29,0,0,0,.83-3.21,4.93,4.93,0,0,0-1.42-3.76,5.53,5.53,0,0,0-3.94-1.33,5.91,5.91,0,0,0-3.95,1.3,5.34,5.34,0,0,0-1.82,3.66l-3.84-.35a8.14,8.14,0,0,1,3-5.61,10.19,10.19,0,0,1,6.62-2.09c3,0,5.23.7,6.83,2.1a7.5,7.5,0,0,1,2.38,5.95,8.06,8.06,0,0,1-.78,3.4,13.54,13.54,0,0,1-2.32,3.38c-.52.55-1.27,1.27-2.25,2.14s-2.21,1.91-3.65,3.09a34.76,34.76,0,0,0-3.82,3.53,11.51,11.51,0,0,0-2,3Z" transform="translate(-13.34 -27.56)"/><path d="M468.22,500.5q0,7.35-2.6,11.23a8.61,8.61,0,0,1-7.66,3.88,8.5,8.5,0,0,1-7.61-3.86q-2.53-3.86-2.54-11.25,0-7.58,2.47-11.34t7.81-3.78c3.46,0,6,1.28,7.66,3.82S468.22,495.51,468.22,500.5Zm-3.82,0a30.85,30.85,0,0,0-.63-6.91,7.36,7.36,0,0,0-2-3.91,5.21,5.21,0,0,0-3.64-1.25,5.56,5.56,0,0,0-3.74,1.23,7.29,7.29,0,0,0-2.09,3.89,29.69,29.69,0,0,0-.66,6.95,28.45,28.45,0,0,0,.68,6.83,7.62,7.62,0,0,0,2.1,3.94,5.2,5.2,0,0,0,3.62,1.28,5.13,5.13,0,0,0,4.86-3Q464.41,506.62,464.4,500.5Z" transform="translate(-13.34 -27.56)"/><path d="M491.16,515a14.49,14.49,0,0,1-3.79.5,4.28,4.28,0,0,1-3.38-1.28,5.67,5.67,0,0,1-1.13-3.83V495.37h-2.6v-2.73H483l1.1-5.05h2.51v5.05h4.16v2.73h-4.16v14.24a3.67,3.67,0,0,0,.53,2.28,2.24,2.24,0,0,0,1.84.66,12,12,0,0,0,2.17-.3Z" transform="translate(-13.34 -27.56)"/><path d="M512.35,503.9c0,3.94-.86,6.88-2.6,8.81s-4.26,2.9-7.57,2.9-5.78-1-7.46-3-2.52-4.91-2.52-8.7.84-6.81,2.53-8.76,4.21-2.92,7.58-2.92,6,.95,7.61,2.85S512.35,499.91,512.35,503.9Zm-3.93,0c0-3.12-.47-5.38-1.39-6.79s-2.48-2.12-4.66-2.12a5.33,5.33,0,0,0-4.76,2.16q-1.47,2.16-1.47,6.75t1.45,6.7a5,5,0,0,0,4.55,2.24q3.38,0,4.83-2.17C507.93,509.22,508.42,507,508.42,503.9Z" transform="translate(-13.34 -27.56)"/><path d="M519.79,502.12v13.07H516V497.45q0-2,0-3.18c0-.79,0-1.34-.09-1.63h3.54c0,.26,0,.6.07,1s0,.85.05,1.33,0,1,0,1.53h.06a7.32,7.32,0,0,1,7.21-4.28c2.47,0,4.29.63,5.43,1.9s1.72,3.28,1.72,6v15h-3.77v-14.3c0-2.15-.35-3.65-1-4.5a4.44,4.44,0,0,0-3.61-1.27,5.29,5.29,0,0,0-4.27,1.85A7.73,7.73,0,0,0,519.79,502.12Z" transform="translate(-13.34 -27.56)"/><path d="M555.56,509a5.68,5.68,0,0,1-2.41,4.92,11.4,11.4,0,0,1-6.74,1.73,12.5,12.5,0,0,1-6.49-1.39,6.51,6.51,0,0,1-3-4.32l3.32-.65a4.1,4.1,0,0,0,2,2.66,8.6,8.6,0,0,0,4.17.84,7.8,7.8,0,0,0,4.18-.87,2.94,2.94,0,0,0,1.32-2.63,2.78,2.78,0,0,0-.92-2.17,7.17,7.17,0,0,0-3-1.37c-1.61-.43-2.89-.79-3.84-1.06s-1.69-.52-2.2-.72a8.53,8.53,0,0,1-1.23-.58,6.24,6.24,0,0,1-2.15-1.94,4.94,4.94,0,0,1-.77-2.81,5.46,5.46,0,0,1,2.2-4.7c1.47-1.08,3.6-1.62,6.41-1.62a11.48,11.48,0,0,1,5.93,1.32,6,6,0,0,1,2.78,4.21l-3.37.42a3.39,3.39,0,0,0-1.68-2.31,7.25,7.25,0,0,0-3.66-.8,7.14,7.14,0,0,0-3.75.77,2.57,2.57,0,0,0-1.21,2.34,2.64,2.64,0,0,0,.69,1.88,5.45,5.45,0,0,0,2.62,1.22c1.74.42,3.39.87,5,1.37a12.48,12.48,0,0,1,3.38,1.47,5.49,5.49,0,0,1,2.42,4.79Z" transform="translate(-13.34 -27.56)"/><path d="M588.78,503.9q0,5.91-2.61,8.81c-1.73,1.93-4.26,2.9-7.56,2.9s-5.78-1-7.47-3-2.52-4.91-2.52-8.7.85-6.81,2.53-8.76,4.22-2.92,7.58-2.92,6,.95,7.61,2.85S588.78,499.91,588.78,503.9Zm-3.94,0q0-4.68-1.39-6.79T578.79,495a5.34,5.34,0,0,0-4.76,2.16q-1.47,2.16-1.47,6.75t1.45,6.7a5,5,0,0,0,4.55,2.24c2.26,0,3.86-.72,4.83-2.17S584.84,507,584.84,503.9Z" transform="translate(-13.34 -27.56)"/><path d="M597,495.37v19.82h-3.75V495.37h-3.17v-2.73h3.17V490.1q0-3.09,1.35-4.44a5.64,5.64,0,0,1,4.15-1.36,11.8,11.8,0,0,1,2.65.25v2.86a10.68,10.68,0,0,0-1.67-.17,2.63,2.63,0,0,0-2.08.73,4.08,4.08,0,0,0-.65,2.65v2h4.4v2.73Z" transform="translate(-13.34 -27.56)"/><path d="M616.85,504.71a9.69,9.69,0,0,0,1.6,6,5.54,5.54,0,0,0,4.69,2.11,7,7,0,0,0,3.91-1,4.91,4.91,0,0,0,2-2.48l3.29.93q-2,5.34-9.19,5.34-5,0-7.62-3t-2.61-8.86q0-5.58,2.61-8.57a9.46,9.46,0,0,1,7.48-3c3.32,0,5.8,1,7.46,3s2.48,5,2.48,9v.5Zm12.21-2.88a8.74,8.74,0,0,0-1.81-5.2,5.57,5.57,0,0,0-4.32-1.64,5.43,5.43,0,0,0-4.32,1.83,7.78,7.78,0,0,0-1.72,5Z" transform="translate(-13.34 -27.56)"/><path d="M635.56,504q0-5.89,2.07-8.85a7.14,7.14,0,0,1,6.23-2.95,8.86,8.86,0,0,1,4.25.91,7,7,0,0,1,2.81,3c0-.28,0-.71.05-1.3s.06-1.15.1-1.66a5.28,5.28,0,0,1,.1-.83h3.61a20.34,20.34,0,0,0-.11,2.14c0,1,0,2.37,0,4v25.55h-3.75V514.9l.09-3.42h-.05a7.27,7.27,0,0,1-2.77,3.18,8.57,8.57,0,0,1-4.29,1c-2.87,0-5-1-6.3-2.9S635.56,507.88,635.56,504Zm15.32-.37c0-2.94-.48-5.11-1.44-6.53a5.12,5.12,0,0,0-4.58-2.13,4.38,4.38,0,0,0-4.11,2.13q-1.25,2.13-1.25,6.78t1.26,6.77a4.41,4.41,0,0,0,4.06,2,5,5,0,0,0,4.62-2.27C650.4,508.93,650.88,506.66,650.88,503.65Z" transform="translate(-13.34 -27.56)"/><path d="M673.58,511.34a7.33,7.33,0,0,1-7.21,4.27q-3.72,0-5.43-1.84c-1.15-1.23-1.72-3.27-1.72-6.1v-15H663v14.3c0,2.25.35,3.78,1,4.57a4.59,4.59,0,0,0,3.6,1.2,5.31,5.31,0,0,0,4.27-1.85,7.78,7.78,0,0,0,1.56-5.15V492.64h3.76v17.74c0,1.3,0,2.36,0,3.17s0,1.35.09,1.64h-3.54c0-.07,0-.39-.07-1s-.07-1.54-.1-2.87Z" transform="translate(-13.34 -27.56)"/><path d="M685.73,484.26v3.58H682v-3.58Zm0,8.38v22.55H682V492.64Z" transform="translate(-13.34 -27.56)"/><path d="M709.49,503.81q0,5.9-2.08,8.85a7.08,7.08,0,0,1-6.22,3c-3.47,0-5.81-1.31-7-3.92h-.11a28.82,28.82,0,0,1,.09,3.54v8.82h-3.76v-26.8c0-1.16,0-2.12,0-2.89s0-1.35-.09-1.72h3.63c0,.05,0,.33.07.81s.06,1,.09,1.58,0,1,0,1.24h.09a6.86,6.86,0,0,1,2.64-3.06,8.58,8.58,0,0,1,4.34-1,7.22,7.22,0,0,1,6.23,2.8Q709.49,497.83,709.49,503.81Zm-3.94.09c0-3.15-.43-5.39-1.27-6.74a4.43,4.43,0,0,0-4-2,5.17,5.17,0,0,0-4.57,2.14c-1,1.42-1.49,3.72-1.49,6.91q0,4.44,1.41,6.54a5.14,5.14,0,0,0,4.61,2.11,4.47,4.47,0,0,0,4.08-2.06C705.12,509.42,705.55,507.12,705.55,503.9Z" transform="translate(-13.34 -27.56)"/><path d="M716.9,502.12v13.07h-3.73V497.45q0-2,0-3.18c0-.79,0-1.34-.09-1.63h3.54c0,.3.06.68.08,1.12s.05.91.07,1.39,0,.93,0,1.35h.06a8,8,0,0,1,2.77-3.34,7.29,7.29,0,0,1,3.82-.94,7.06,7.06,0,0,1,4.05,1,5.4,5.4,0,0,1,2.08,3.26h.06a7.93,7.93,0,0,1,2.82-3.28,7.73,7.73,0,0,1,4-1c2.28,0,3.93.62,5,1.86s1.55,3.26,1.55,6.08v15h-3.71v-14.3c0-2.18-.3-3.69-.9-4.52a3.71,3.71,0,0,0-3.23-1.25,4.51,4.51,0,0,0-3.82,1.82,8.54,8.54,0,0,0-1.37,5.18v13.07h-3.71v-14.3c0-2.18-.3-3.69-.89-4.52a3.75,3.75,0,0,0-3.24-1.25A4.52,4.52,0,0,0,718.3,497,8.41,8.41,0,0,0,716.9,502.12Z" transform="translate(-13.34 -27.56)"/><path d="M750.46,504.71a9.69,9.69,0,0,0,1.61,6,5.54,5.54,0,0,0,4.69,2.11,7,7,0,0,0,3.91-1,5,5,0,0,0,2-2.48l3.29.93q-2,5.34-9.19,5.34-5,0-7.62-3t-2.62-8.86q0-5.58,2.62-8.57c1.74-2,4.23-3,7.47-3s5.81,1,7.46,3,2.48,5,2.48,9v.5Zm12.22-2.88a8.74,8.74,0,0,0-1.82-5.2,5.56,5.56,0,0,0-4.31-1.64,5.46,5.46,0,0,0-4.33,1.83,7.9,7.9,0,0,0-1.72,5Z" transform="translate(-13.34 -27.56)"/><path d="M774.1,502.12v13.07h-3.76V497.45q0-2,0-3.18c0-.79,0-1.34-.09-1.63h3.54c0,.26,0,.6.07,1s0,.85.06,1.33,0,1,0,1.53H774a8.28,8.28,0,0,1,3-3.31,8.39,8.39,0,0,1,4.22-1q3.72,0,5.43,1.9c1.15,1.26,1.72,3.28,1.72,6v15h-3.77v-14.3c0-2.15-.35-3.65-1-4.5a4.44,4.44,0,0,0-3.61-1.27,5.31,5.31,0,0,0-4.27,1.85A7.78,7.78,0,0,0,774.1,502.12Z" transform="translate(-13.34 -27.56)"/><path d="M801.61,515a14.57,14.57,0,0,1-3.8.5,4.26,4.26,0,0,1-3.37-1.28,5.67,5.67,0,0,1-1.13-3.83V495.37h-2.6v-2.73h2.75l1.1-5.05h2.5v5.05h4.17v2.73h-4.17v14.24a3.74,3.74,0,0,0,.53,2.28,2.26,2.26,0,0,0,1.85.66,12.08,12.08,0,0,0,2.17-.3Z" transform="translate(-13.34 -27.56)"/><path d="M367.28,1135.36a7.25,7.25,0,0,1-3.18,6.3c-2.12,1.48-5.1,2.23-9,2.23q-10.74,0-12.44-7.47l3.85-.77a5.93,5.93,0,0,0,2.84,3.89,11.85,11.85,0,0,0,5.9,1.24,11.19,11.19,0,0,0,5.95-1.32,4.32,4.32,0,0,0,2.09-3.89,3.87,3.87,0,0,0-.65-2.33,5,5,0,0,0-1.85-1.49,14.14,14.14,0,0,0-2.83-1c-1.1-.27-2.32-.55-3.65-.86q-2.31-.53-3.87-1a14.94,14.94,0,0,1-2.55-1.05,9.3,9.3,0,0,1-1.71-1.18,6.5,6.5,0,0,1-1.6-2.23,7.42,7.42,0,0,1-.55-2.92,6.7,6.7,0,0,1,2.89-5.82c1.92-1.36,4.68-2,8.26-2q5,0,7.65,1.53a8.32,8.32,0,0,1,3.71,5.23l-3.91.68a5.43,5.43,0,0,0-2.46-3.38,10,10,0,0,0-5-1.06,10.16,10.16,0,0,0-5.38,1.17,3.86,3.86,0,0,0-1.85,3.48,3.44,3.44,0,0,0,.72,2.24,5.48,5.48,0,0,0,2.07,1.49,30.55,30.55,0,0,0,5.4,1.52c1.13.27,2.24.54,3.34.83a19.84,19.84,0,0,1,3.1,1.07,10.3,10.3,0,0,1,1.64.87,6.71,6.71,0,0,1,1.36,1.17,6.34,6.34,0,0,1,1.24,2.07A7.85,7.85,0,0,1,367.28,1135.36Z" transform="translate(-13.34 -27.56)"/><path d="M373.93,1133a9.71,9.71,0,0,0,1.6,6,5.55,5.55,0,0,0,4.69,2.1,6.89,6.89,0,0,0,3.91-1,4.87,4.87,0,0,0,2-2.48l3.3.94q-2,5.34-9.2,5.34c-3.33,0-5.87-1-7.62-3S370,1136,370,1132.05c0-3.73.87-6.58,2.61-8.57s4.24-3,7.48-3,5.81,1,7.46,3,2.48,5,2.48,9v.51Zm12.21-2.88a8.72,8.72,0,0,0-1.81-5.2,5.57,5.57,0,0,0-4.32-1.64,5.45,5.45,0,0,0-4.32,1.82,7.87,7.87,0,0,0-1.72,5Z" transform="translate(-13.34 -27.56)"/><path d="M410.65,1137.24a5.72,5.72,0,0,1-2.4,4.92,11.46,11.46,0,0,1-6.75,1.73,12.5,12.5,0,0,1-6.49-1.39,6.55,6.55,0,0,1-3-4.32l3.31-.65a4.12,4.12,0,0,0,2,2.66,8.6,8.6,0,0,0,4.17.84,7.78,7.78,0,0,0,4.18-.87,3,3,0,0,0,1.33-2.63,2.81,2.81,0,0,0-.92-2.17,7.23,7.23,0,0,0-3-1.37c-1.61-.44-2.9-.79-3.85-1.07s-1.68-.51-2.2-.72a9.2,9.2,0,0,1-1.23-.57,6.31,6.31,0,0,1-2.14-1.94,4.87,4.87,0,0,1-.78-2.81,5.47,5.47,0,0,1,2.2-4.7q2.21-1.62,6.41-1.62a11.56,11.56,0,0,1,5.93,1.31,6,6,0,0,1,2.79,4.21l-3.38.42a3.37,3.37,0,0,0-1.68-2.3,9.13,9.13,0,0,0-7.41,0,2.59,2.59,0,0,0-1.21,2.33,2.65,2.65,0,0,0,.69,1.89,5.44,5.44,0,0,0,2.63,1.22c1.73.42,3.39.87,5,1.36a13.31,13.31,0,0,1,3.38,1.47,5.48,5.48,0,0,1,2.41,4.8Z" transform="translate(-13.34 -27.56)"/><path d="M430.93,1137.24a5.7,5.7,0,0,1-2.41,4.92,11.4,11.4,0,0,1-6.74,1.73,12.5,12.5,0,0,1-6.49-1.39,6.55,6.55,0,0,1-3-4.32l3.31-.65a4.12,4.12,0,0,0,2,2.66,8.6,8.6,0,0,0,4.17.84,7.8,7.8,0,0,0,4.18-.87,3,3,0,0,0,1.32-2.63,2.8,2.8,0,0,0-.91-2.17,7.3,7.3,0,0,0-3-1.37c-1.62-.44-2.9-.79-3.85-1.07s-1.68-.51-2.2-.72a9.2,9.2,0,0,1-1.23-.57,6.34,6.34,0,0,1-2.15-1.94,4.94,4.94,0,0,1-.77-2.81,5.47,5.47,0,0,1,2.2-4.7c1.47-1.08,3.6-1.62,6.41-1.62a11.56,11.56,0,0,1,5.93,1.31,6,6,0,0,1,2.79,4.21l-3.38.42a3.37,3.37,0,0,0-1.68-2.3,9.13,9.13,0,0,0-7.41,0,2.56,2.56,0,0,0-1.21,2.33,2.65,2.65,0,0,0,.69,1.89,5.44,5.44,0,0,0,2.63,1.22c1.73.42,3.39.87,5,1.36a13,13,0,0,1,3.37,1.47,5.46,5.46,0,0,1,2.42,4.8Z" transform="translate(-13.34 -27.56)"/><path d="M438,1112.54v3.58h-3.76v-3.58Zm0,8.38v22.55h-3.76v-22.55Z" transform="translate(-13.34 -27.56)"/><path d="M461.77,1132.17c0,3.95-.86,6.89-2.6,8.82s-4.26,2.9-7.57,2.9-5.78-1-7.46-3-2.52-4.91-2.52-8.71.84-6.81,2.53-8.75,4.21-2.92,7.58-2.92,6,1,7.61,2.84S461.77,1128.18,461.77,1132.17Zm-3.93,0c0-3.11-.47-5.37-1.39-6.78s-2.48-2.12-4.66-2.12a5.33,5.33,0,0,0-4.76,2.16q-1.47,2.16-1.47,6.74t1.45,6.7a5,5,0,0,0,4.55,2.25c2.25,0,3.86-.73,4.83-2.17S457.84,1135.24,457.84,1132.17Z" transform="translate(-13.34 -27.56)"/><path d="M469.21,1130.4v13.07h-3.75v-17.74q0-2,0-3.18c0-.8-.05-1.34-.09-1.63h3.54c0,.26.05.59.07,1s0,.84.05,1.33,0,1,.05,1.52h.06a8.25,8.25,0,0,1,3-3.3,8.36,8.36,0,0,1,4.22-1q3.71,0,5.43,1.9c1.15,1.26,1.72,3.28,1.72,6v15H479.7v-14.3c0-2.15-.35-3.65-1-4.5a4.44,4.44,0,0,0-3.61-1.27,5.26,5.26,0,0,0-4.27,1.85A7.73,7.73,0,0,0,469.21,1130.4Z" transform="translate(-13.34 -27.56)"/><path d="M502.6,1112.54v30.93h-3.75v-30.93Z" transform="translate(-13.34 -27.56)"/><path d="M511,1112.54v30.93h-3.76v-30.93Z" transform="translate(-13.34 -27.56)"/><path d="M131.34,983.54H245.18v21.56H131.34Z" transform="translate(-13.34 -27.56)"/><path d="M349.85,1179l-3.38,8.59h-4.13l12-29.37h4.52l11.8,29.37h-4.06l-3.36-8.59Zm6.69-17.78c-.24.78-.52,1.65-.85,2.6s-.62,1.79-.9,2.51l-3.73,9.57h11l-3.77-9.69c-.2-.49-.45-1.18-.77-2.07S356.86,1162.32,356.54,1161.26Z" transform="translate(-13.34 -27.56)"/><path d="M386.8,1183.78a7.33,7.33,0,0,1-7.21,4.27c-2.47,0-4.28-.62-5.43-1.84s-1.72-3.27-1.72-6.1v-15h3.77v14.3c0,2.25.35,3.78,1.06,4.57a4.58,4.58,0,0,0,3.59,1.2,5.29,5.29,0,0,0,4.27-1.85,7.73,7.73,0,0,0,1.57-5.15v-13.07h3.75v17.74c0,1.3,0,2.36,0,3.17a14,14,0,0,0,.1,1.64H387c0-.07,0-.39-.07-1s-.07-1.54-.09-2.87Z" transform="translate(-13.34 -27.56)"/><path d="M403.77,1196.49a10.49,10.49,0,0,1-5.88-1.45,6.51,6.51,0,0,1-2.82-4.11l3.78-.55a3.83,3.83,0,0,0,1.65,2.41,6,6,0,0,0,3.37.85,5.22,5.22,0,0,0,4.2-1.65,7.41,7.41,0,0,0,1.41-4.92v-3.63h0a7.54,7.54,0,0,1-2.92,3.27,8.47,8.47,0,0,1-4.34,1.09c-2.76,0-4.8-.92-6.1-2.75s-1.94-4.72-1.94-8.65.69-6.93,2.09-8.83a7.39,7.39,0,0,1,6.37-2.85,7.73,7.73,0,0,1,4.16,1.1,7.26,7.26,0,0,1,2.72,3.11h0c0-.27,0-.71,0-1.3s.06-1.15.11-1.68a4.92,4.92,0,0,1,.1-.87h3.56c-.08.75-.12,2.3-.12,4.67V1187c0,3.17-.79,5.54-2.36,7.13S406.92,1196.49,403.77,1196.49Zm5.71-20.13a11,11,0,0,0-1.68-6.48,5.08,5.08,0,0,0-4.28-2.36,4.57,4.57,0,0,0-4.19,2.08q-1.32,2.09-1.32,6.76c0,3.08.41,5.3,1.23,6.64a4.54,4.54,0,0,0,4.21,2,5.15,5.15,0,0,0,4.35-2.33A10.62,10.62,0,0,0,409.48,1176.36Z" transform="translate(-13.34 -27.56)"/><path d="M432.15,1183.78a8.24,8.24,0,0,1-3,3.3,8.36,8.36,0,0,1-4.22,1c-2.47,0-4.28-.62-5.43-1.84s-1.72-3.27-1.72-6.1v-15h3.77v14.3c0,2.25.36,3.78,1.06,4.57a4.58,4.58,0,0,0,3.59,1.2,5.33,5.33,0,0,0,4.28-1.85,7.78,7.78,0,0,0,1.56-5.15v-13.07h3.75v17.74c0,1.3,0,2.36,0,3.17s.06,1.35.1,1.64h-3.55c0-.07,0-.39-.07-1s-.07-1.54-.09-2.87Z" transform="translate(-13.34 -27.56)"/><path d="M457.5,1181.4a5.68,5.68,0,0,1-2.41,4.92,11.4,11.4,0,0,1-6.74,1.73,12.56,12.56,0,0,1-6.5-1.39,6.53,6.53,0,0,1-3-4.32l3.32-.65a4.1,4.1,0,0,0,2,2.66,8.6,8.6,0,0,0,4.17.84,7.82,7.82,0,0,0,4.18-.87,2.94,2.94,0,0,0,1.32-2.63,2.81,2.81,0,0,0-.92-2.17,7.23,7.23,0,0,0-3-1.37c-1.61-.43-2.89-.79-3.84-1.07s-1.69-.51-2.2-.71a8,8,0,0,1-1.23-.58,6.25,6.25,0,0,1-2.15-1.94,4.94,4.94,0,0,1-.77-2.81,5.46,5.46,0,0,1,2.2-4.7q2.19-1.62,6.41-1.62a11.48,11.48,0,0,1,5.93,1.32,6,6,0,0,1,2.78,4.21l-3.37.42a3.39,3.39,0,0,0-1.68-2.31,7.25,7.25,0,0,0-3.66-.8,7.14,7.14,0,0,0-3.75.77,2.57,2.57,0,0,0-1.21,2.34,2.64,2.64,0,0,0,.69,1.88,5.4,5.4,0,0,0,2.62,1.22c1.74.42,3.39.87,5,1.37a12.48,12.48,0,0,1,3.38,1.47,5.49,5.49,0,0,1,2.42,4.79Z" transform="translate(-13.34 -27.56)"/><path d="M469.52,1187.47a14.49,14.49,0,0,1-3.79.5,4.25,4.25,0,0,1-3.38-1.29,5.64,5.64,0,0,1-1.12-3.82v-15h-2.61v-2.73h2.75l1.11-5H465v5h4.17v2.73H465v14.24a3.67,3.67,0,0,0,.53,2.28,2.24,2.24,0,0,0,1.84.66,11.86,11.86,0,0,0,2.17-.3Z" transform="translate(-13.34 -27.56)"/><path d="M501.51,1178.07a9.7,9.7,0,0,1-2.76,7.31,10.57,10.57,0,0,1-7.66,2.67,11.23,11.23,0,0,1-6.63-1.79,8,8,0,0,1-3.19-5.19l3.79-.44a5.83,5.83,0,0,0,2.13,3.26,6.65,6.65,0,0,0,4,1.1,6.15,6.15,0,0,0,4.73-1.83,7,7,0,0,0,1.71-5,6,6,0,0,0-1.72-4.48,6.27,6.27,0,0,0-4.63-1.71,8.22,8.22,0,0,0-2.84.48,8.53,8.53,0,0,0-2.63,1.62h-3.67l1-15.8h16.7v3.19H486.52l-.56,9.32a9.68,9.68,0,0,1,6.07-1.88,10.37,10.37,0,0,1,5,1.16,8.1,8.1,0,0,1,3.29,3.22A9.56,9.56,0,0,1,501.51,1178.07Z" transform="translate(-13.34 -27.56)"/><path d="M514.56,1174.62V1178H504.13v-3.34Z" transform="translate(-13.34 -27.56)"/><path d="M537,1184.44v3.19h-18.4v-3.19h7.48v-22.59l-6.63,4.73V1163l6.94-4.78h3.46v26.18Z" transform="translate(-13.34 -27.56)"/><path d="M560,1179.44a8,8,0,0,1-2.59,6.34q-2.58,2.27-7.42,2.27t-7.36-2.23a7.8,7.8,0,0,1-2.66-6.34,7.27,7.27,0,0,1,1.64-4.83,6.76,6.76,0,0,1,4.21-2.38v-.08a6.4,6.4,0,0,1-3.78-2.44,7.24,7.24,0,0,1-1.39-4.4,6.72,6.72,0,0,1,2.52-5.44,10.21,10.21,0,0,1,6.74-2.09,10.52,10.52,0,0,1,6.85,2,6.75,6.75,0,0,1,2.51,5.52,7.18,7.18,0,0,1-1.4,4.4,6,6,0,0,1-3.81,2.35v.09a6.81,6.81,0,0,1,4.38,2.39A7.4,7.4,0,0,1,560,1179.44Zm-3.9-.35a5.12,5.12,0,0,0-1.62-4.12,6.82,6.82,0,0,0-4.57-1.39,6.32,6.32,0,0,0-4.46,1.49,5.33,5.33,0,0,0-1.61,4.1,6.07,6.07,0,0,0,1.56,4.54,6.35,6.35,0,0,0,4.64,1.53,6.28,6.28,0,0,0,4.56-1.47Q556.05,1182.3,556.05,1179.09Zm-.73-13.49q0-5-5.46-5t-5.42,5a5,5,0,0,0,1.43,3.85,5.72,5.72,0,0,0,4,1.32,6,6,0,0,0,4-1.22A5,5,0,0,0,555.32,1165.6Z" transform="translate(-13.34 -27.56)"/><path d="M363.86,1234.44v3.19H344.41V1235a18.7,18.7,0,0,1,2.57-4.32,27.3,27.3,0,0,1,3.22-3.38q1.71-1.5,3.38-2.79c.55-.43,1.08-.86,1.57-1.29s1-.86,1.41-1.29a13,13,0,0,0,2.16-2.71,6.29,6.29,0,0,0,.82-3.21,4.89,4.89,0,0,0-1.42-3.76,5.51,5.51,0,0,0-3.94-1.33,5.93,5.93,0,0,0-3.95,1.3,5.38,5.38,0,0,0-1.82,3.66l-3.84-.35a8.18,8.18,0,0,1,3-5.61,10.21,10.21,0,0,1,6.62-2.09q4.44,0,6.83,2.1a7.51,7.51,0,0,1,2.39,5.95,8.06,8.06,0,0,1-.78,3.4,13.87,13.87,0,0,1-2.33,3.38c-.51.55-1.26,1.27-2.25,2.14s-2.2,1.91-3.65,3.09a33.66,33.66,0,0,0-3.81,3.53,11.33,11.33,0,0,0-2.05,3Z" transform="translate(-13.34 -27.56)"/><path d="M387,1222.94q0,7.35-2.59,11.23a8.63,8.63,0,0,1-7.67,3.88,8.5,8.5,0,0,1-7.6-3.86q-2.55-3.86-2.55-11.25,0-7.57,2.47-11.34t7.81-3.78c3.46,0,6,1.28,7.66,3.82S387,1218,387,1222.94Zm-3.81,0a30.77,30.77,0,0,0-.64-6.91,7.36,7.36,0,0,0-2-3.91,5.24,5.24,0,0,0-3.65-1.25,5.54,5.54,0,0,0-3.73,1.23,7.23,7.23,0,0,0-2.1,3.89,30.32,30.32,0,0,0-.65,7,28.52,28.52,0,0,0,.67,6.83,7.69,7.69,0,0,0,2.1,3.94,5.21,5.21,0,0,0,3.63,1.28,5.12,5.12,0,0,0,4.85-3Q383.2,1229.06,383.2,1222.94Z" transform="translate(-13.34 -27.56)"/><path d="M409.27,1234.44v3.19H390.86v-3.19h7.49v-22.59l-6.63,4.73V1213l6.94-4.78h3.46v26.18Z" transform="translate(-13.34 -27.56)"/><path d="M432.17,1229.44a8,8,0,0,1-2.58,6.34c-1.72,1.51-4.2,2.27-7.42,2.27s-5.6-.74-7.37-2.23a7.83,7.83,0,0,1-2.66-6.34,7.22,7.22,0,0,1,1.65-4.83,6.74,6.74,0,0,1,4.21-2.38v-.08a6.34,6.34,0,0,1-3.78-2.44,7.17,7.17,0,0,1-1.39-4.4,6.74,6.74,0,0,1,2.51-5.44,10.24,10.24,0,0,1,6.75-2.09,10.47,10.47,0,0,1,6.84,2,6.73,6.73,0,0,1,2.52,5.52,7.18,7.18,0,0,1-1.4,4.4,6,6,0,0,1-3.82,2.35v.09a6.76,6.76,0,0,1,4.38,2.39A7.4,7.4,0,0,1,432.17,1229.44Zm-3.89-.35a5.13,5.13,0,0,0-1.63-4.12,6.77,6.77,0,0,0-4.56-1.39,6.33,6.33,0,0,0-4.47,1.49,5.33,5.33,0,0,0-1.6,4.1,6.1,6.1,0,0,0,1.55,4.54,7.82,7.82,0,0,0,9.21.06Q428.28,1232.3,428.28,1229.09Zm-.73-13.49q0-5-5.46-5c-3.62,0-5.42,1.66-5.42,5a5,5,0,0,0,1.42,3.85,5.75,5.75,0,0,0,4,1.32,5.94,5.94,0,0,0,4-1.22A5,5,0,0,0,427.55,1215.6Z" transform="translate(-13.34 -27.56)"/><path d="M488.36,1474.84v3.59h-3.75v-3.59Zm0,8.38v22.56h-3.75v-22.56Z" transform="translate(-13.34 -27.56)"/><path d="M496.88,1492.71v13.07h-3.75V1488q0-2,0-3.18c0-.8-.05-1.34-.09-1.64h3.54c0,.27.05.6.07,1s0,.85.06,1.34,0,1,0,1.52h.06a8.18,8.18,0,0,1,3-3.3,8.36,8.36,0,0,1,4.22-1q3.72,0,5.43,1.89c1.15,1.27,1.72,3.28,1.72,6v15h-3.77v-14.3c0-2.16-.35-3.66-1-4.5a4.44,4.44,0,0,0-3.61-1.28,5.27,5.27,0,0,0-4.27,1.86A7.77,7.77,0,0,0,496.88,1492.71Z" transform="translate(-13.34 -27.56)"/><path d="M488.78,1532.5V1552h-3.54v-29.37h4.63l15.88,25.18q-.25-4.11-.25-5.92v-19.26h3.59V1552h-4.8l-15.72-25c0,.91.07,1.83.13,2.75S488.78,1531.58,488.78,1532.5Z" transform="translate(-13.34 -27.56)"/><path d="M520.13,1552.43a6.72,6.72,0,0,1-5.11-1.8,6.81,6.81,0,0,1-1.71-4.91,6.52,6.52,0,0,1,2.31-5.38q2.29-1.87,7.43-2l5.06-.09V1537a5.55,5.55,0,0,0-1.16-3.94,5,5,0,0,0-3.67-1.18,6.21,6.21,0,0,0-3.67.85,3.8,3.8,0,0,0-1.38,2.73l-3.92-.35q1-6.09,9.05-6.09,4.26,0,6.4,2a7.24,7.24,0,0,1,2.15,5.64v9.71a5.5,5.5,0,0,0,.44,2.51,1.68,1.68,0,0,0,1.66.85,5.43,5.43,0,0,0,1.23-.15v2.34a13.52,13.52,0,0,1-1.44.25,14.09,14.09,0,0,1-1.45.08,3.79,3.79,0,0,1-3-1.1,5.59,5.59,0,0,1-1.07-3.42h-.13a9.07,9.07,0,0,1-3.34,3.65A9.28,9.28,0,0,1,520.13,1552.43Zm8-11.55-4.1.08a12.57,12.57,0,0,0-4,.54,4.31,4.31,0,0,0-2.1,1.55,4.62,4.62,0,0,0-.73,2.73,3.84,3.84,0,0,0,1,2.83,3.78,3.78,0,0,0,2.82,1,7.1,7.1,0,0,0,3.67-.93,6.91,6.91,0,0,0,2.54-2.58,6.81,6.81,0,0,0,.92-3.37Zm-7.33-18.11v3.83h-3.44v-3.83Zm8.17,0v3.83h-3.4v-3.83Z" transform="translate(-13.34 -27.56)"/><path d="M541.7,1532.19V1552H538v-19.82h-3.17v-2.73H538v-2.55q0-3.08,1.35-4.44a5.68,5.68,0,0,1,4.15-1.35,11.8,11.8,0,0,1,2.65.25v2.85a10.5,10.5,0,0,0-1.67-.16,2.63,2.63,0,0,0-2.08.73,4,4,0,0,0-.65,2.64v2h4.4v2.73Z" transform="translate(-13.34 -27.56)"/><path d="M550.72,1541.53a9.69,9.69,0,0,0,1.61,6,5.54,5.54,0,0,0,4.69,2.1,6.91,6.91,0,0,0,3.91-1,4.87,4.87,0,0,0,2-2.48l3.29.94q-2,5.34-9.19,5.34c-3.34,0-5.88-1-7.62-3s-2.62-4.94-2.62-8.86c0-3.73.87-6.58,2.62-8.57s4.23-3,7.47-3,5.81,1,7.46,3,2.49,5,2.49,9v.5Zm12.22-2.88a8.71,8.71,0,0,0-1.82-5.2,5.55,5.55,0,0,0-4.31-1.64,5.46,5.46,0,0,0-4.33,1.83,7.87,7.87,0,0,0-1.72,5Z" transform="translate(-13.34 -27.56)"/><path d="M574.27,1521.08V1552h-3.75v-30.93Z" transform="translate(-13.34 -27.56)"/><path d="M595.87,1545.78a5.73,5.73,0,0,1-2.41,4.92,11.46,11.46,0,0,1-6.75,1.73,12.52,12.52,0,0,1-6.49-1.39,6.53,6.53,0,0,1-3-4.32l3.31-.65a4.08,4.08,0,0,0,2,2.66,8.58,8.58,0,0,0,4.16.84,7.78,7.78,0,0,0,4.18-.87,2.94,2.94,0,0,0,1.33-2.63,2.81,2.81,0,0,0-.92-2.17,7.23,7.23,0,0,0-3-1.37c-1.61-.43-2.89-.79-3.85-1.07a21.6,21.6,0,0,1-2.19-.72,8.14,8.14,0,0,1-1.23-.57,6.25,6.25,0,0,1-2.15-1.94,4.86,4.86,0,0,1-.77-2.81,5.45,5.45,0,0,1,2.2-4.7q2.19-1.62,6.41-1.62a11.5,11.5,0,0,1,5.93,1.32,6,6,0,0,1,2.78,4.21l-3.38.41a3.39,3.39,0,0,0-1.68-2.3,7.24,7.24,0,0,0-3.65-.8,7.11,7.11,0,0,0-3.76.77,2.59,2.59,0,0,0-1.21,2.33,2.65,2.65,0,0,0,.69,1.89,5.49,5.49,0,0,0,2.63,1.22q2.61.63,5,1.36a13.14,13.14,0,0,1,3.38,1.47,5.52,5.52,0,0,1,2.42,4.8Z" transform="translate(-13.34 -27.56)"/><path d="M509.86,1591.05a7.25,7.25,0,0,1-3.18,6.3c-2.12,1.48-5.11,2.23-9,2.23q-10.73,0-12.44-7.46l3.86-.78a5.89,5.89,0,0,0,2.83,3.89,11.87,11.87,0,0,0,5.9,1.24,11.17,11.17,0,0,0,5.95-1.32,4.31,4.31,0,0,0,2.1-3.89,3.81,3.81,0,0,0-.66-2.33,4.82,4.82,0,0,0-1.84-1.48,13.62,13.62,0,0,0-2.84-1c-1.1-.27-2.31-.55-3.65-.86-1.54-.35-2.83-.69-3.86-1a14.31,14.31,0,0,1-2.56-1,9.66,9.66,0,0,1-1.71-1.18,6.61,6.61,0,0,1-1.59-2.23,7.24,7.24,0,0,1-.55-2.92,6.7,6.7,0,0,1,2.88-5.81c1.93-1.37,4.68-2.05,8.27-2.05q5,0,7.65,1.53a8.42,8.42,0,0,1,3.71,5.23l-3.92.68a5.36,5.36,0,0,0-2.46-3.38,12.69,12.69,0,0,0-10.4.11,3.85,3.85,0,0,0-1.86,3.48,3.42,3.42,0,0,0,.72,2.24,5.44,5.44,0,0,0,2.08,1.49,30.63,30.63,0,0,0,5.4,1.53c1.12.26,2.23.53,3.33.82a20,20,0,0,1,3.11,1.07,10.2,10.2,0,0,1,1.63.87,6.51,6.51,0,0,1,1.37,1.18,6.37,6.37,0,0,1,1.24,2.06A7.85,7.85,0,0,1,509.86,1591.05Z" transform="translate(-13.34 -27.56)"/><path d="M525.42,1583.21l-4.08,16H517l-6.31-22.55h3.71l3.87,15.61c.12.45.25,1,.4,1.69s.3,1.39.44,2.15c.15-.66.31-1.31.47-2s.32-1.3.49-1.94l4.1-15.55h4l3.94,15.48c.16.66.33,1.32.49,2s.31,1.32.47,2c.15-.67.3-1.37.46-2.1s.31-1.37.45-1.93l4-15.42h3.66l-6.46,22.55h-4.36l-3.93-16c-.14-.58-.27-1.17-.39-1.76s-.24-1.17-.37-1.76c0,.31-.15.82-.3,1.56S525.58,1582.63,525.42,1583.21Z" transform="translate(-13.34 -27.56)"/><path d="M547.12,1568.23v3.58h-3.75v-3.58Zm0,8.38v22.55h-3.75v-22.55Z" transform="translate(-13.34 -27.56)"/><path d="M560.48,1599a14.16,14.16,0,0,1-3.8.51,4.23,4.23,0,0,1-3.37-1.29,5.64,5.64,0,0,1-1.13-3.82v-15.05h-2.6v-2.73h2.75l1.1-5h2.5v5h4.17v2.73h-4.17v14.24a3.67,3.67,0,0,0,.54,2.28,2.25,2.25,0,0,0,1.84.65,11.74,11.74,0,0,0,2.17-.29Z" transform="translate(-13.34 -27.56)"/><path d="M578.94,1596.26v2.9H561.45v-2.85l12.62-16.81H562.16v-2.89h16.35v2.85l-12.64,16.8Z" transform="translate(-13.34 -27.56)"/><path d="M585.76,1588.68a9.71,9.71,0,0,0,1.6,6,5.54,5.54,0,0,0,4.69,2.1,6.89,6.89,0,0,0,3.91-1,4.87,4.87,0,0,0,2-2.48l3.29.94q-2,5.34-9.19,5.34c-3.33,0-5.87-1-7.62-3s-2.61-4.94-2.61-8.86c0-3.73.87-6.58,2.61-8.57s4.24-3,7.47-3,5.81,1,7.47,3,2.48,5,2.48,9v.5ZM598,1585.8a8.72,8.72,0,0,0-1.81-5.2,5.57,5.57,0,0,0-4.32-1.64,5.43,5.43,0,0,0-4.32,1.83,7.76,7.76,0,0,0-1.72,5Z" transform="translate(-13.34 -27.56)"/><path d="M609.39,1587.4v11.76h-3.75v-17.3c0-.79,0-1.63,0-2.5s-.06-1.79-.1-2.75h3.55c0,.64.05,1.21.07,1.73s0,1,0,1.34,0,.7,0,1,0,.45,0,.57h.09a12.15,12.15,0,0,1,1.37-3.17,4,4,0,0,1,1.67-1.44,5.86,5.86,0,0,1,2.31-.41,5.65,5.65,0,0,1,1.53.21v3.44a7.46,7.46,0,0,0-2-.21,3.94,3.94,0,0,0-3.56,2A11.11,11.11,0,0,0,609.39,1587.4Z" transform="translate(-13.34 -27.56)"/><path d="M622.46,1568.23v30.93H618.7v-30.93Z" transform="translate(-13.34 -27.56)"/><path d="M632.87,1599.58a6.75,6.75,0,0,1-5.1-1.79,6.85,6.85,0,0,1-1.71-4.92,6.55,6.55,0,0,1,2.3-5.38c1.54-1.25,4-1.92,7.43-2l5.07-.09v-1.23a5.51,5.51,0,0,0-1.17-3.94,5,5,0,0,0-3.67-1.18,6.23,6.23,0,0,0-3.67.85,3.79,3.79,0,0,0-1.37,2.73l-3.92-.35q1-6.09,9.05-6.09,4.25,0,6.4,2a7.23,7.23,0,0,1,2.14,5.64v9.71a5.64,5.64,0,0,0,.44,2.51,1.69,1.69,0,0,0,1.67.85,5.43,5.43,0,0,0,1.23-.15V1599a13.52,13.52,0,0,1-1.44.25,14.28,14.28,0,0,1-1.46.08,3.83,3.83,0,0,1-3-1.09,5.65,5.65,0,0,1-1.08-3.43h-.12a9.09,9.09,0,0,1-3.35,3.65A9.26,9.26,0,0,1,632.87,1599.58Zm8-11.55-4.11.08a12.18,12.18,0,0,0-4,.55,4.22,4.22,0,0,0-2.11,1.54,4.69,4.69,0,0,0-.73,2.73,3.47,3.47,0,0,0,3.82,3.83,7.13,7.13,0,0,0,3.67-.93,6.89,6.89,0,0,0,2.53-2.58,6.72,6.72,0,0,0,.93-3.37Z" transform="translate(-13.34 -27.56)"/><path d="M653.63,1586.09v13.07h-3.75v-17.74q0-2,0-3.18c0-.8-.05-1.34-.09-1.63h3.54c0,.26.05.59.07,1s0,.85,0,1.33,0,1,.05,1.52h.06a8.25,8.25,0,0,1,3-3.3,8.36,8.36,0,0,1,4.22-1c2.47,0,4.29.63,5.43,1.9s1.72,3.28,1.72,6v15h-3.77v-14.3c0-2.15-.35-3.65-1-4.5a4.44,4.44,0,0,0-3.61-1.27,5.29,5.29,0,0,0-4.27,1.85A7.73,7.73,0,0,0,653.63,1586.09Z" transform="translate(-13.34 -27.56)"/><path d="M687,1599.16a8.39,8.39,0,0,1-.09-.86c0-.43-.06-.9-.08-1.41s0-1,0-1.36h-.08a6.69,6.69,0,0,1-2.76,3.11,8.77,8.77,0,0,1-4.26.94q-4.28,0-6.29-2.88t-2-8.71q0-5.9,2.07-8.85a7.11,7.11,0,0,1,6.23-3,8.76,8.76,0,0,1,4.27.94,6.73,6.73,0,0,1,2.75,3h0l0-2.52v-9.36h3.75v26.28c0,1.18,0,2.16,0,2.93s.06,1.35.1,1.72Zm-11.67-11.3q0,4.74,1.25,6.78a4.4,4.4,0,0,0,4.06,2,5.12,5.12,0,0,0,4.63-2.21q1.44-2.21,1.44-6.86c0-3-.48-5.17-1.44-6.56a5.18,5.18,0,0,0-4.58-2.09,4.42,4.42,0,0,0-4.1,2.1Q675.33,1583.15,675.33,1587.86Z" transform="translate(-13.34 -27.56)"/><path d="M748.69,1663.67l-4.09,15.94h-4.33L734,1657.06h3.71l3.88,15.61c.11.45.24,1,.4,1.69s.29,1.4.43,2.15c.16-.66.31-1.31.47-2s.33-1.3.49-1.94l4.11-15.55h4l3.94,15.49c.17.65.33,1.31.49,2s.32,1.32.47,2c.15-.67.31-1.37.47-2.1s.31-1.37.45-1.93l4-15.42H765l-6.46,22.55h-4.36l-3.94-15.94c-.14-.59-.27-1.17-.39-1.77s-.23-1.17-.36-1.76l-.3,1.56C749,1662.43,748.84,1663.08,748.69,1663.67Z" transform="translate(-13.34 -27.56)"/><path d="M778.45,1663.67l-4.08,15.94H770l-6.32-22.55h3.72l3.87,15.61c.11.45.25,1,.4,1.69s.3,1.4.44,2.15c.15-.66.31-1.31.47-2s.32-1.3.49-1.94l4.1-15.55h4l3.94,15.49c.16.65.33,1.31.49,2s.31,1.32.46,2c.16-.67.31-1.37.47-2.1s.31-1.37.45-1.93l4-15.42h3.67l-6.46,22.55h-4.36L780,1663.67c-.14-.59-.26-1.17-.38-1.77s-.24-1.17-.37-1.76q-.08.46-.3,1.56C778.75,1662.43,778.61,1663.08,778.45,1663.67Z" transform="translate(-13.34 -27.56)"/><path d="M808.22,1663.67l-4.09,15.94h-4.34l-6.31-22.55h3.71l3.88,15.61c.11.45.24,1,.39,1.69s.3,1.4.44,2.15c.15-.66.31-1.31.47-2s.32-1.3.49-1.94l4.1-15.55h4l3.94,15.49c.16.65.33,1.31.49,2s.31,1.32.47,2c.15-.67.31-1.37.47-2.1s.31-1.37.44-1.93l4-15.42h3.67L818,1679.61h-4.35l-3.94-15.94c-.14-.59-.27-1.17-.39-1.77l-.36-1.76c-.06.31-.16.83-.31,1.56S808.37,1663.08,808.22,1663.67Z" transform="translate(-13.34 -27.56)"/><path d="M828.91,1675.05v4.56h-4.06v-4.56Z" transform="translate(-13.34 -27.56)"/><path d="M745.33,1727.1a14.49,14.49,0,0,1-3.79.5,4.28,4.28,0,0,1-3.38-1.28,5.67,5.67,0,0,1-1.13-3.83v-15h-2.6v-2.73h2.75l1.11-5h2.5v5H745v2.73h-4.17v14.24a3.65,3.65,0,0,0,.53,2.28,2.24,2.24,0,0,0,1.84.66,12.69,12.69,0,0,0,2.17-.29Z" transform="translate(-13.34 -27.56)"/><path d="M748.56,1736.13a13,13,0,0,1-2.59-.23v-2.82a10.48,10.48,0,0,0,1.75.13,4.9,4.9,0,0,0,3.25-1.3,11.1,11.1,0,0,0,2.65-4.75l-8.94-22.45h4l4.76,12.47c.34.89.72,1.89,1.11,3s.71,2.12.93,3l1-2.94c.36-1,.7-1.94,1-2.92l4.32-12.61h4l-8.67,22.56c-.48,1.19-.93,2.24-1.36,3.13a16.44,16.44,0,0,1-1.25,2.22,8.59,8.59,0,0,1-2.68,2.64A6.4,6.4,0,0,1,748.56,1736.13Z" transform="translate(-13.34 -27.56)"/><path d="M786.8,1715.88q0,5.91-2.07,8.85a7.1,7.1,0,0,1-6.22,3c-3.48,0-5.81-1.3-7-3.91h-.1a30.15,30.15,0,0,1,.08,3.54v8.82h-3.75v-26.81c0-1.15,0-2.12,0-2.89s-.05-1.34-.09-1.72h3.62c0,.06,0,.33.08.82s.06,1,.09,1.57,0,1,0,1.24h.09a6.78,6.78,0,0,1,2.64-3,8.48,8.48,0,0,1,4.34-1,7.24,7.24,0,0,1,6.23,2.79C786.12,1709,786.8,1711.9,786.8,1715.88Zm-3.93.09c0-3.14-.43-5.39-1.28-6.73a4.41,4.41,0,0,0-4-2,5.22,5.22,0,0,0-4.58,2.14q-1.49,2.14-1.49,6.91c0,3,.48,5.14,1.42,6.55a5.16,5.16,0,0,0,4.61,2.1,4.43,4.43,0,0,0,4.07-2.05Q782.87,1720.81,782.87,1716Z" transform="translate(-13.34 -27.56)"/><path d="M809.48,1716q0,5.92-2.6,8.82t-7.57,2.89c-3.3,0-5.78-1-7.46-3s-2.53-4.91-2.53-8.7.85-6.81,2.54-8.76,4.21-2.92,7.57-2.92,6,1,7.61,2.85S809.48,1712,809.48,1716Zm-3.94,0c0-3.11-.46-5.38-1.38-6.79s-2.48-2.11-4.66-2.11a5.37,5.37,0,0,0-4.77,2.15q-1.47,2.16-1.47,6.75c0,3,.49,5.21,1.45,6.7a5.05,5.05,0,0,0,4.56,2.24q3.38,0,4.82-2.17T805.54,1716Z" transform="translate(-13.34 -27.56)"/><path d="M821.63,1736.13a10.57,10.57,0,0,1-5.88-1.45,6.51,6.51,0,0,1-2.81-4.12l3.77-.54a3.86,3.86,0,0,0,1.66,2.41,6,6,0,0,0,3.36.84,5.19,5.19,0,0,0,4.2-1.65,7.37,7.37,0,0,0,1.41-4.92v-3.62h0a7.51,7.51,0,0,1-2.92,3.26,8.38,8.38,0,0,1-4.34,1.09c-2.76,0-4.79-.91-6.09-2.75s-2-4.72-2-8.65.7-6.93,2.09-8.83a7.41,7.41,0,0,1,6.37-2.84,7.7,7.7,0,0,1,4.16,1.09,7.23,7.23,0,0,1,2.72,3.12h0c0-.28,0-.71,0-1.3s.07-1.15.11-1.68a6.64,6.64,0,0,1,.1-.88h3.57c-.09.75-.13,2.31-.13,4.67v17.24q0,4.76-2.35,7.13C827.15,1735.33,824.78,1736.13,821.63,1736.13Zm5.71-20.14a11,11,0,0,0-1.68-6.47,5.05,5.05,0,0,0-4.28-2.37,4.59,4.59,0,0,0-4.19,2.09c-.88,1.38-1.31,3.64-1.31,6.75s.41,5.3,1.23,6.65a4.52,4.52,0,0,0,4.21,2,5.12,5.12,0,0,0,4.34-2.32A10.66,10.66,0,0,0,827.34,1716Z" transform="translate(-13.34 -27.56)"/><path d="M839.59,1715.51v11.76h-3.75V1710c0-.79,0-1.62,0-2.5s0-1.79-.09-2.75h3.54c0,.64,0,1.22.07,1.73s0,1,.06,1.35,0,.7,0,1,0,.44,0,.57h.08a12.47,12.47,0,0,1,1.38-3.17,4,4,0,0,1,1.66-1.45,5.87,5.87,0,0,1,2.32-.41,6.05,6.05,0,0,1,1.52.21v3.44a7.38,7.38,0,0,0-2-.21,4,4,0,0,0-3.57,2A11.11,11.11,0,0,0,839.59,1715.51Z" transform="translate(-13.34 -27.56)"/><path d="M854.66,1727.68a6.73,6.73,0,0,1-5.11-1.79,6.86,6.86,0,0,1-1.71-4.92,6.54,6.54,0,0,1,2.31-5.38c1.53-1.25,4-1.91,7.43-2l5.07-.08v-1.23a5.49,5.49,0,0,0-1.17-3.94,5,5,0,0,0-3.67-1.19,6.2,6.2,0,0,0-3.67.86,3.84,3.84,0,0,0-1.38,2.73l-3.91-.36q.95-6.09,9-6.09c2.84,0,5,.66,6.4,2a7.24,7.24,0,0,1,2.15,5.64v9.72a5.5,5.5,0,0,0,.44,2.51,1.69,1.69,0,0,0,1.66.84,6,6,0,0,0,1.23-.14v2.33a11.56,11.56,0,0,1-1.43.25,12,12,0,0,1-1.46.09,3.84,3.84,0,0,1-3-1.1,5.63,5.63,0,0,1-1.07-3.43h-.12a9.13,9.13,0,0,1-3.35,3.66A9.28,9.28,0,0,1,854.66,1727.68Zm8-11.54-4.11.08a11.92,11.92,0,0,0-4,.54,4.28,4.28,0,0,0-2.11,1.54,4.66,4.66,0,0,0-.73,2.73,3.86,3.86,0,0,0,1,2.84,3.79,3.79,0,0,0,2.83,1,7,7,0,0,0,3.66-.94,7,7,0,0,0,3.47-5.94Z" transform="translate(-13.34 -27.56)"/><path d="M890.66,1715.88q0,5.91-2.08,8.85a7.08,7.08,0,0,1-6.22,3c-3.47,0-5.81-1.3-7-3.91h-.11a28.55,28.55,0,0,1,.09,3.54v8.82h-3.76v-26.81c0-1.15,0-2.12,0-2.89s0-1.34-.09-1.72h3.63c0,.06,0,.33.07.82s.06,1,.09,1.57,0,1,0,1.24h.09a6.74,6.74,0,0,1,2.65-3,8.42,8.42,0,0,1,4.33-1,7.24,7.24,0,0,1,6.23,2.79C890,1709,890.66,1711.9,890.66,1715.88Zm-3.94.09c0-3.14-.43-5.39-1.27-6.73a4.44,4.44,0,0,0-4.05-2,5.2,5.2,0,0,0-4.57,2.14c-1,1.43-1.49,3.73-1.49,6.91q0,4.44,1.41,6.55a5.16,5.16,0,0,0,4.61,2.1,4.46,4.46,0,0,0,4.08-2.05Q886.71,1720.81,886.72,1716Z" transform="translate(-13.34 -27.56)"/><path d="M898,1708.57a8.44,8.44,0,0,1,2.91-3.24,8.15,8.15,0,0,1,4.3-1q3.67,0,5.41,1.91c1.16,1.27,1.74,3.29,1.74,6v15h-3.77V1713a7.19,7.19,0,0,0-1.07-4.42,4.29,4.29,0,0,0-3.58-1.36,5.32,5.32,0,0,0-4.24,1.84,7.28,7.28,0,0,0-1.59,4.94v13.3h-3.76v-30.94h3.76v8.05c0,.55,0,1.14-.05,1.76s0,1.15-.07,1.61,0,.72-.05.82Z" transform="translate(-13.34 -27.56)"/><path d="M920.67,1696.33v3.59h-3.75v-3.59Zm0,8.38v22.56h-3.75v-22.56Z" transform="translate(-13.34 -27.56)"/><path d="M934,1727.68c-3.15,0-5.56-1-7.22-3s-2.49-4.9-2.49-8.72.83-6.69,2.5-8.68a8.82,8.82,0,0,1,7.17-3,9,9,0,0,1,5.75,1.8,7.84,7.84,0,0,1,2.86,4.94l-3.86.29a5,5,0,0,0-1.47-3,4.78,4.78,0,0,0-3.38-1.11,4.83,4.83,0,0,0-4.32,2q-1.34,2-1.33,6.67c0,3,.47,5.23,1.42,6.68a4.76,4.76,0,0,0,4.27,2.16,5.2,5.2,0,0,0,3.35-1.08,5,5,0,0,0,1.65-3.34l3.8.25a8.29,8.29,0,0,1-1.45,3.78,7.74,7.74,0,0,1-3,2.48A9.87,9.87,0,0,1,934,1727.68Z" transform="translate(-13.34 -27.56)"/><path d="M955.07,1714.26v3.33H944.65v-3.33Z" transform="translate(-13.34 -27.56)"/><path d="M754,1770.92a5.67,5.67,0,0,1-2.41,4.91,11.33,11.33,0,0,1-6.74,1.74,12.6,12.6,0,0,1-6.49-1.39,6.51,6.51,0,0,1-3-4.33l3.31-.64a4.12,4.12,0,0,0,2,2.66,8.6,8.6,0,0,0,4.17.84,7.7,7.7,0,0,0,4.18-.88,2.92,2.92,0,0,0,1.32-2.62,2.8,2.8,0,0,0-.91-2.17,7.29,7.29,0,0,0-3-1.38c-1.62-.43-2.9-.78-3.85-1.06s-1.69-.52-2.2-.72a9.2,9.2,0,0,1-1.23-.57,6.45,6.45,0,0,1-2.15-1.94,5,5,0,0,1-.77-2.82,5.47,5.47,0,0,1,2.2-4.7,10.79,10.79,0,0,1,6.41-1.61,11.56,11.56,0,0,1,5.93,1.31,6,6,0,0,1,2.78,4.21l-3.37.42a3.37,3.37,0,0,0-1.68-2.3,7.14,7.14,0,0,0-3.66-.81,7.06,7.06,0,0,0-3.75.78,2.56,2.56,0,0,0-1.21,2.33,2.67,2.67,0,0,0,.69,1.89,5.45,5.45,0,0,0,2.62,1.22c1.74.41,3.4.87,5,1.36a12.38,12.38,0,0,1,3.37,1.47,5.93,5.93,0,0,1,1.81,2A5.87,5.87,0,0,1,754,1770.92Z" transform="translate(-13.34 -27.56)"/><path d="M771.59,1773.29a8.28,8.28,0,0,1-3,3.31,8.47,8.47,0,0,1-4.22,1q-3.72,0-5.43-1.85t-1.72-6.1v-15H761v14.3c0,2.25.35,3.78,1,4.58a4.6,4.6,0,0,0,3.6,1.2,5.27,5.27,0,0,0,4.27-1.86,7.75,7.75,0,0,0,1.57-5.15v-13.07h3.75v17.74c0,1.31,0,2.37,0,3.17s.05,1.36.09,1.65h-3.54c0-.07,0-.4-.07-1s-.07-1.54-.1-2.88Z" transform="translate(-13.34 -27.56)"/><path d="M783.82,1764.08v13.07h-3.73v-17.74q0-2,0-3.18c0-.8,0-1.35-.09-1.64h3.54c0,.31.06.68.08,1.13s0,.91.07,1.39,0,.92,0,1.34h.06a7.78,7.78,0,0,1,2.77-3.33,7.26,7.26,0,0,1,3.82-.94,7.06,7.06,0,0,1,4,1,5.38,5.38,0,0,1,2.08,3.25h.06a7.9,7.9,0,0,1,2.82-3.27,7.64,7.64,0,0,1,4-1c2.27,0,3.93.61,5,1.85s1.55,3.27,1.55,6.09v15h-3.71v-14.3q0-3.27-.9-4.53a3.71,3.71,0,0,0-3.23-1.25,4.49,4.49,0,0,0-3.82,1.83,8.5,8.5,0,0,0-1.37,5.18v13.07h-3.71v-14.3q0-3.27-.9-4.53a3.71,3.71,0,0,0-3.23-1.25,4.53,4.53,0,0,0-3.79,1.84A8.39,8.39,0,0,0,783.82,1764.08Z" transform="translate(-13.34 -27.56)"/><path d="M818.32,1764.08v13.07h-3.73v-17.74q0-2,0-3.18c0-.8-.06-1.35-.1-1.64H818c0,.31,0,.68.08,1.13s0,.91.06,1.39,0,.92,0,1.34h.06a7.79,7.79,0,0,1,2.78-3.33,7.22,7.22,0,0,1,3.81-.94,7.11,7.11,0,0,1,4.06,1,5.41,5.41,0,0,1,2.07,3.25H831a7.85,7.85,0,0,1,2.83-3.27,7.58,7.58,0,0,1,4-1c2.28,0,3.94.61,5,1.85s1.56,3.27,1.56,6.09v15h-3.72v-14.3c0-2.18-.29-3.69-.89-4.53a3.74,3.74,0,0,0-3.23-1.25,4.51,4.51,0,0,0-3.83,1.83,8.5,8.5,0,0,0-1.36,5.18v13.07h-3.71v-14.3q0-3.27-.9-4.53a3.74,3.74,0,0,0-3.23-1.25,4.55,4.55,0,0,0-3.8,1.84A8.39,8.39,0,0,0,818.32,1764.08Z" transform="translate(-13.34 -27.56)"/><path d="M851.88,1766.66a9.73,9.73,0,0,0,1.6,6,5.54,5.54,0,0,0,4.69,2.1,7,7,0,0,0,3.91-1,4.87,4.87,0,0,0,2-2.48l3.29.94q-2,5.34-9.19,5.34c-3.33,0-5.88-1-7.62-3s-2.61-4.94-2.61-8.86c0-3.72.87-6.58,2.61-8.56s4.24-3,7.48-3,5.8,1,7.46,3,2.48,5,2.48,9v.5Zm12.21-2.87a8.72,8.72,0,0,0-1.81-5.2A5.54,5.54,0,0,0,858,1757a5.45,5.45,0,0,0-4.32,1.82,7.81,7.81,0,0,0-1.72,5Z" transform="translate(-13.34 -27.56)"/><path d="M875.51,1765.39v11.76h-3.75v-17.3c0-.8,0-1.63,0-2.5s-.06-1.8-.1-2.76h3.55c0,.64.05,1.22.07,1.73s0,1,0,1.35,0,.7,0,1,0,.45,0,.57h.09a12.15,12.15,0,0,1,1.37-3.17,4.05,4.05,0,0,1,1.67-1.45,5.87,5.87,0,0,1,2.31-.4,6.06,6.06,0,0,1,1.53.2v3.44a8,8,0,0,0-2-.2,3.94,3.94,0,0,0-3.56,2A11.11,11.11,0,0,0,875.51,1765.39Z" transform="translate(-13.34 -27.56)"/><path d="M903.9,1765.77q0,5.89-2.08,8.85a7.11,7.11,0,0,1-6.22,3c-3.47,0-5.81-1.31-7-3.92h-.11a28.69,28.69,0,0,1,.09,3.54V1786h-3.76V1759.2c0-1.15,0-2.12,0-2.89s0-1.34-.09-1.72h3.63c0,.06,0,.33.07.82s.06,1,.09,1.57,0,1,0,1.24h.08a6.8,6.8,0,0,1,2.65-3,8.42,8.42,0,0,1,4.33-1,7.24,7.24,0,0,1,6.23,2.79Q903.9,1759.78,903.9,1765.77Zm-3.94.08c0-3.14-.43-5.39-1.27-6.73a4.43,4.43,0,0,0-4.05-2,5.2,5.2,0,0,0-4.57,2.13c-1,1.43-1.49,3.73-1.49,6.91q0,4.44,1.41,6.55a5.16,5.16,0,0,0,4.61,2.1,4.46,4.46,0,0,0,4.08-2Q900,1770.69,900,1765.85Z" transform="translate(-13.34 -27.56)"/><path d="M911.34,1765.39v11.76h-3.76v-17.3c0-.8,0-1.63,0-2.5s0-1.8-.09-2.76H911c0,.64,0,1.22.07,1.73s0,1,.06,1.35,0,.7,0,1,0,.45,0,.57h.08a12.47,12.47,0,0,1,1.38-3.17,4,4,0,0,1,1.66-1.45,5.88,5.88,0,0,1,2.32-.4,6,6,0,0,1,1.52.2v3.44a7.88,7.88,0,0,0-2-.2,3.92,3.92,0,0,0-3.56,2A11.11,11.11,0,0,0,911.34,1765.39Z" transform="translate(-13.34 -27.56)"/><path d="M939.72,1765.85q0,5.93-2.6,8.82t-7.57,2.9q-4.93,0-7.46-3c-1.68-2-2.53-4.91-2.53-8.7s.85-6.81,2.54-8.75,4.21-2.92,7.57-2.92,6,.94,7.61,2.84S939.72,1761.86,939.72,1765.85Zm-3.94,0q0-4.66-1.38-6.79t-4.66-2.11a5.35,5.35,0,0,0-4.77,2.16q-1.47,2.15-1.47,6.74c0,3,.49,5.21,1.45,6.7a5,5,0,0,0,4.56,2.24q3.38,0,4.82-2.17T935.78,1765.85Z" transform="translate(-13.34 -27.56)"/><path d="M951.87,1786a10.49,10.49,0,0,1-5.88-1.45,6.55,6.55,0,0,1-2.81-4.12l3.77-.54a3.83,3.83,0,0,0,1.66,2.41,6,6,0,0,0,3.36.84,5.25,5.25,0,0,0,4.21-1.64,7.46,7.46,0,0,0,1.4-4.92V1773h0a7.51,7.51,0,0,1-2.92,3.26,8.34,8.34,0,0,1-4.33,1.1q-4.15,0-6.1-2.76t-2-8.65q0-6,2.1-8.83a7.39,7.39,0,0,1,6.36-2.84,7.7,7.7,0,0,1,4.16,1.09,7.16,7.16,0,0,1,2.72,3.12h0c0-.28,0-.71,0-1.3s.06-1.15.1-1.68a4.58,4.58,0,0,1,.11-.88h3.56c-.08.75-.13,2.31-.13,4.67v17.24q0,4.76-2.35,7.13T951.87,1786Zm5.71-20.14a11,11,0,0,0-1.68-6.47,5,5,0,0,0-4.28-2.37,4.59,4.59,0,0,0-4.19,2.09q-1.3,2.09-1.31,6.75c0,3.09.41,5.3,1.23,6.65a4.52,4.52,0,0,0,4.21,2,5.11,5.11,0,0,0,4.34-2.32A10.66,10.66,0,0,0,957.58,1765.87Z" transform="translate(-13.34 -27.56)"/><path d="M969.84,1765.39v11.76h-3.76v-17.3c0-.8,0-1.63,0-2.5s0-1.8-.09-2.76h3.54c0,.64,0,1.22.08,1.73s0,1,0,1.35,0,.7,0,1,0,.45,0,.57h.08a12.47,12.47,0,0,1,1.38-3.17,4.05,4.05,0,0,1,1.67-1.45,5.8,5.8,0,0,1,2.31-.4,6,6,0,0,1,1.52.2v3.44a7.88,7.88,0,0,0-2-.2,3.93,3.93,0,0,0-3.56,2A11.11,11.11,0,0,0,969.84,1765.39Z" transform="translate(-13.34 -27.56)"/><path d="M984.9,1777.57a6.71,6.71,0,0,1-5.1-1.8,6.82,6.82,0,0,1-1.71-4.92,6.54,6.54,0,0,1,2.3-5.38c1.54-1.25,4-1.91,7.43-2l5.07-.08v-1.23a5.49,5.49,0,0,0-1.17-3.94,5,5,0,0,0-3.67-1.19,6.22,6.22,0,0,0-3.67.86,3.79,3.79,0,0,0-1.37,2.73l-3.92-.36q1-6.08,9-6.08,4.26,0,6.4,1.94a7.25,7.25,0,0,1,2.15,5.64v9.72a5.64,5.64,0,0,0,.44,2.51,1.71,1.71,0,0,0,1.67.84,5.53,5.53,0,0,0,1.23-.14V1777a12.06,12.06,0,0,1-1.44.25,11.92,11.92,0,0,1-1.46.09,3.8,3.8,0,0,1-3-1.1,5.62,5.62,0,0,1-1.08-3.43h-.12a9.06,9.06,0,0,1-3.35,3.66A9.28,9.28,0,0,1,984.9,1777.57Zm8-11.55-4.11.08a12,12,0,0,0-4,.54,4.29,4.29,0,0,0-2.11,1.55,4.69,4.69,0,0,0-.73,2.73,3.86,3.86,0,0,0,1,2.83,3.8,3.8,0,0,0,2.83,1,7,7,0,0,0,3.67-.94,7.06,7.06,0,0,0,3.46-5.94Z" transform="translate(-13.34 -27.56)"/><path d="M1005.64,1764.08v13.07h-3.73v-17.74q0-2,0-3.18a14,14,0,0,0-.1-1.64h3.55c0,.31,0,.68.08,1.13s.05.91.06,1.39,0,.92,0,1.34h.07a7.78,7.78,0,0,1,2.77-3.33,7.22,7.22,0,0,1,3.81-.94,7.09,7.09,0,0,1,4.06,1,5.41,5.41,0,0,1,2.07,3.25h.06a7.85,7.85,0,0,1,2.83-3.27,7.58,7.58,0,0,1,4-1c2.28,0,3.94.61,5,1.85s1.56,3.27,1.56,6.09v15H1028v-14.3q0-3.27-.9-4.53a3.73,3.73,0,0,0-3.23-1.25,4.51,4.51,0,0,0-3.83,1.83,8.5,8.5,0,0,0-1.36,5.18v13.07H1015v-14.3q0-3.27-.9-4.53a3.73,3.73,0,0,0-3.23-1.25,4.52,4.52,0,0,0-3.79,1.84A8.39,8.39,0,0,0,1005.64,1764.08Z" transform="translate(-13.34 -27.56)"/><path d="M1041.41,1772.58v4.57h-4.07v-4.57Z" transform="translate(-13.34 -27.56)"/><path d="M1055.77,1777.57q-4.74,0-7.23-3t-2.49-8.72c0-3.79.83-6.69,2.5-8.68a8.81,8.81,0,0,1,7.17-3,9,9,0,0,1,5.75,1.79,7.84,7.84,0,0,1,2.86,4.94l-3.85.29a5,5,0,0,0-1.48-3,4.78,4.78,0,0,0-3.38-1.1,4.83,4.83,0,0,0-4.32,2c-.88,1.32-1.33,3.54-1.33,6.67s.47,5.22,1.42,6.67a4.77,4.77,0,0,0,4.27,2.17,5.19,5.19,0,0,0,3.35-1.09,4.93,4.93,0,0,0,1.65-3.33l3.8.25a8.3,8.3,0,0,1-1.45,3.77,7.65,7.65,0,0,1-3,2.48A9.86,9.86,0,0,1,1055.77,1777.57Z" transform="translate(-13.34 -27.56)"/><path d="M1071.12,1758.45a8.44,8.44,0,0,1,2.91-3.24,8.16,8.16,0,0,1,4.31-1c2.44,0,4.25.63,5.41,1.9s1.74,3.29,1.74,6v15h-3.78v-14.3a7.14,7.14,0,0,0-1.07-4.42,4.32,4.32,0,0,0-3.58-1.36,5.37,5.37,0,0,0-4.24,1.84,7.28,7.28,0,0,0-1.59,4.94v13.3h-3.75v-30.94h3.75v8c0,.56,0,1.14,0,1.76s-.06,1.16-.08,1.61,0,.72,0,.82Z" transform="translate(-13.34 -27.56)"/><path d="M1197.29,2032.3l-3.37,8.59h-4.13l12-29.37h4.52l11.8,29.37H1214l-3.35-8.59Zm6.7-17.78c-.24.78-.52,1.65-.85,2.6s-.63,1.79-.9,2.51l-3.74,9.57h11l-3.77-9.7c-.2-.48-.46-1.17-.77-2.06S1204.31,2015.58,1204,2014.52Z" transform="translate(-13.34 -27.56)"/><path d="M1239.07,2029.51c0,3.93-.7,6.88-2.08,8.85a7.1,7.1,0,0,1-6.22,3c-3.48,0-5.81-1.31-7-3.92h-.1a30.42,30.42,0,0,1,.08,3.54v8.82H1220v-26.81q0-1.73,0-2.88c0-.77,0-1.35-.09-1.72h3.62a7.91,7.91,0,0,1,.08.81c0,.49.06,1,.09,1.57s0,1,0,1.24h.09a6.78,6.78,0,0,1,2.64-3,8.48,8.48,0,0,1,4.34-1,7.24,7.24,0,0,1,6.23,2.79C1238.38,2022.6,1239.07,2025.52,1239.07,2029.51Zm-3.94.08q0-4.71-1.28-6.73a4.4,4.4,0,0,0-4-2,5.2,5.2,0,0,0-4.58,2.14q-1.49,2.13-1.49,6.91c0,3,.48,5.14,1.42,6.54a5.17,5.17,0,0,0,4.61,2.11,4.44,4.44,0,0,0,4.07-2.06C1234.7,2035.11,1235.13,2032.82,1235.13,2029.59Z" transform="translate(-13.34 -27.56)"/><path d="M1261.74,2029.51q0,5.9-2.07,8.85a7.11,7.11,0,0,1-6.23,3q-5.2,0-7-3.92h-.1a33.49,33.49,0,0,1,.08,3.54v8.82h-3.75v-26.81q0-1.73,0-2.88c0-.77-.06-1.35-.1-1.72h3.63c0,.05,0,.32.07.81s.07,1,.1,1.57,0,1,0,1.24h.08a6.85,6.85,0,0,1,2.65-3,8.44,8.44,0,0,1,4.33-1,7.27,7.27,0,0,1,6.24,2.79C1261.05,2022.6,1261.74,2025.52,1261.74,2029.51Zm-3.94.08q0-4.71-1.27-6.73a4.42,4.42,0,0,0-4-2,5.19,5.19,0,0,0-4.58,2.14q-1.48,2.13-1.49,6.91,0,4.44,1.42,6.54a5.15,5.15,0,0,0,4.6,2.11,4.45,4.45,0,0,0,4.08-2.06C1257.37,2035.11,1257.8,2032.82,1257.8,2029.59Z" transform="translate(-13.34 -27.56)"/><path d="M1269.1,2010v30.93h-3.76V2010Z" transform="translate(-13.34 -27.56)"/><path d="M1274.87,2049.75a12.9,12.9,0,0,1-2.59-.23v-2.81a11.74,11.74,0,0,0,1.75.12,4.8,4.8,0,0,0,3.24-1.3,11,11,0,0,0,2.66-4.74l-8.94-22.45h4l4.75,12.46c.35.89.72,1.9,1.12,3s.7,2.11.93,3q.51-1.49,1-2.94c.35-1,.7-1.95,1-2.92l4.32-12.61h4l-8.68,22.55c-.47,1.2-.92,2.24-1.35,3.14a16.44,16.44,0,0,1-1.25,2.22,8.7,8.7,0,0,1-2.68,2.64A6.49,6.49,0,0,1,1274.87,2049.75Z" transform="translate(-13.34 -27.56)"/><path d="M1211.37,2078.48q0,5.92-2.61,8.82t-7.57,2.9c-3.29,0-5.78-1-7.46-3s-2.52-4.91-2.52-8.71.84-6.81,2.53-8.75,4.22-2.92,7.58-2.92,6,1,7.61,2.84S1211.37,2074.49,1211.37,2078.48Zm-3.94,0c0-3.11-.47-5.37-1.39-6.78s-2.48-2.12-4.66-2.12a5.33,5.33,0,0,0-4.76,2.16c-1,1.44-1.47,3.68-1.47,6.74s.48,5.21,1.45,6.7a5,5,0,0,0,4.55,2.24q3.38,0,4.83-2.16C1206.94,2083.81,1207.43,2081.55,1207.43,2078.48Z" transform="translate(-13.34 -27.56)"/><path d="M1218.8,2076.71v13.07h-3.75V2072q0-2,0-3.18c0-.8,0-1.34-.09-1.63h3.54c0,.26,0,.59.07,1s0,.84,0,1.33,0,1,.05,1.52h.06a8.25,8.25,0,0,1,3-3.3,8.36,8.36,0,0,1,4.22-1c2.47,0,4.29.63,5.43,1.9s1.72,3.28,1.72,6v15h-3.77v-14.3c0-2.15-.35-3.65-1-4.5a4.44,4.44,0,0,0-3.61-1.27,5.26,5.26,0,0,0-4.27,1.85A7.71,7.71,0,0,0,1218.8,2076.71Z" transform="translate(-13.34 -27.56)"/><path d="M1241.4,2058.85v30.93h-3.76v-30.93Z" transform="translate(-13.34 -27.56)"/><path d="M1249.79,2058.85v3.58H1246v-3.58Zm0,8.38v22.55H1246v-22.55Z" transform="translate(-13.34 -27.56)"/><path d="M1258.31,2076.71v13.07h-3.75V2072q0-2,0-3.18c0-.8,0-1.34-.09-1.63H1258c0,.26,0,.59.07,1s0,.84.06,1.33,0,1,0,1.52h.06a8.25,8.25,0,0,1,3-3.3,8.36,8.36,0,0,1,4.22-1q3.72,0,5.43,1.9c1.15,1.26,1.72,3.28,1.72,6v15h-3.77v-14.3c0-2.15-.35-3.65-1-4.5a4.44,4.44,0,0,0-3.61-1.27,5.26,5.26,0,0,0-4.27,1.85A7.71,7.71,0,0,0,1258.31,2076.71Z" transform="translate(-13.34 -27.56)"/><path d="M1280,2079.29a9.73,9.73,0,0,0,1.61,6,5.54,5.54,0,0,0,4.69,2.1,6.87,6.87,0,0,0,3.9-1,4.89,4.89,0,0,0,2-2.48l3.29.94q-2,5.34-9.19,5.34c-3.34,0-5.88-1-7.62-3s-2.62-4.94-2.62-8.86c0-3.73.87-6.58,2.62-8.57s4.23-3,7.47-3,5.81,1,7.46,3,2.48,5,2.48,9v.5Zm12.22-2.87a8.71,8.71,0,0,0-1.82-5.2,5.56,5.56,0,0,0-4.31-1.64,5.49,5.49,0,0,0-4.33,1.82,7.92,7.92,0,0,0-1.72,5Z" transform="translate(-13.34 -27.56)"/><path d="M1195.36,2118.79v13.07h-3.75v-17.74q0-2,0-3.18a13.76,13.76,0,0,0-.1-1.63H1195c0,.26,0,.59.07,1s0,.85.05,1.33,0,1,0,1.52h.06a8.25,8.25,0,0,1,3-3.3,8.36,8.36,0,0,1,4.22-1q3.71,0,5.43,1.9c1.15,1.26,1.72,3.28,1.72,6v15h-3.77v-14.3q0-3.22-1-4.5a4.4,4.4,0,0,0-3.6-1.27,5.29,5.29,0,0,0-4.27,1.85A7.73,7.73,0,0,0,1195.36,2118.79Z" transform="translate(-13.34 -27.56)"/><path d="M1233.28,2120.56q0,5.93-2.61,8.82t-7.57,2.9c-3.29,0-5.78-1-7.46-3s-2.52-4.91-2.52-8.71.84-6.81,2.53-8.75,4.22-2.92,7.58-2.92,6,1,7.61,2.85S1233.28,2116.58,1233.28,2120.56Zm-3.94,0c0-3.11-.47-5.37-1.39-6.78s-2.48-2.12-4.66-2.12a5.34,5.34,0,0,0-4.76,2.16q-1.47,2.16-1.47,6.74t1.45,6.7a5,5,0,0,0,4.55,2.25c2.25,0,3.86-.73,4.83-2.17S1229.34,2123.63,1229.34,2120.56Z" transform="translate(-13.34 -27.56)"/><path d="M1248.68,2115.92l-4.09,15.94h-4.33l-6.32-22.55h3.71l3.88,15.61c.11.45.24,1,.39,1.69s.3,1.39.44,2.15c.15-.66.31-1.31.47-2s.32-1.3.49-1.94l4.11-15.55h4l3.94,15.48c.17.66.33,1.32.49,2s.32,1.32.47,2c.15-.67.31-1.37.47-2.1s.31-1.37.45-1.93l4-15.42h3.67l-6.47,22.55h-4.35l-3.94-15.94q-.21-.89-.39-1.77l-.36-1.76c-.06.31-.16.82-.31,1.56S1248.83,2115.33,1248.68,2115.92Z" transform="translate(-13.34 -27.56)"/><path d="M1271.67,2127.67v4.19h-4.05v-4.19Zm.08-25.18-.5,21.1h-3.09l-.5-21.1Z" transform="translate(-13.34 -27.56)"/><line class="cls-1" x1="5.92" y1="3.63" x2="5.92" y2="132.85"/><line class="cls-1" x1="111.65" y1="1.5" x2="111.65" y2="132.85"/><line class="cls-1" x1="1309.76" y1="3.63" x2="111.65" y2="1.5"/><line class="cls-1" x1="1309.76" y1="133.92" x2="111.65" y2="131.79"/><line class="cls-2" x1="237.72" y1="132.85" x2="111.65" y2="1.5"/><line class="cls-2" x1="237.72" y1="132.85" x2="368.01" y2="2.56"/><line class="cls-2" x1="368.01" y1="2.56" x2="497.24" y2="131.79"/><line class="cls-2" x1="629.92" y1="3.63" x2="497.24" y2="131.79"/><line class="cls-2" x1="762.53" y1="132.85" x2="629.92" y2="3.63"/><line class="cls-2" x1="893.83" y1="3.63" x2="762.53" y2="132.85"/><line class="cls-2" x1="963.43" y1="68.24" x2="893.83" y2="3.63"/><line class="cls-2" x1="963.43" y1="37.54" x2="963.43" y2="68.24"/><line class="cls-2" x1="930.13" y1="68.24" x2="963.43" y2="68.24"/><line class="cls-1" x1="47.92" y1="185.09" x2="47.92" y2="315.74"/><line class="cls-1" x1="139.54" y1="185.09" x2="139.54" y2="315.74"/><line class="cls-2" x1="237.72" y1="177.84" x2="237.72" y2="310.42"/><line class="cls-2" x1="330.6" y1="897.15" x2="330.6" y2="1031.15"/><line class="cls-2" x1="527.6" y1="897.15" x2="527.6" y2="1031.15"/><line class="cls-3" x1="438.6" y1="897.15" x2="438.6" y2="1031.15"/><line class="cls-2" x1="659.33" y1="914.35" x2="542.58" y2="1014.78"/><line class="cls-1" x1="677.04" y1="897.15" x2="677.04" y2="1031.15"/><line class="cls-2" x1="815.28" y1="897.15" x2="815.28" y2="1031.15"/><line class="cls-2" x1="873.28" y1="897.15" x2="873.28" y2="1031.15"/><line class="cls-1" x1="1010.28" y1="897.15" x2="1010.28" y2="1031.15"/><line class="cls-2" x1="1105.28" y1="897.15" x2="1105.28" y2="1031.15"/><line class="cls-2" x1="1160.21" y1="897.15" x2="1160.21" y2="1299.38"/><line class="cls-1" x1="1219.56" y1="900.11" x2="1219.56" y2="1475.91"/><line class="cls-2" x1="6.08" y1="1081.04" x2="6.08" y2="1214.12"/><line class="cls-2" x1="170.08" y1="1078.04" x2="170.08" y2="1211.12"/><line class="cls-2" x1="220.08" y1="1078.04" x2="220.08" y2="1211.12"/><line class="cls-2" x1="316.08" y1="1078.04" x2="316.08" y2="1211.12"/><line class="cls-1" x1="109.08" y1="1078.04" x2="109.08" y2="1211.12"/><line class="cls-2" x1="220.08" y1="1257.24" x2="220.08" y2="1395.2"/><line class="cls-2" x1="90.52" y1="1326.22" x2="220.08" y2="1326.22"/><line class="cls-2" x1="111.36" y1="1304.46" x2="90.52" y2="1326.22"/><line class="cls-2" x1="111.36" y1="1347.98" x2="90.52" y2="1326.22"/><line class="cls-1" x1="316.08" y1="1259.89" x2="316.08" y2="1392.56"/><line class="cls-2" x1="376.78" y1="1259.89" x2="376.78" y2="1392.56"/><line class="cls-2" x1="429.78" y1="1259.89" x2="429.78" y2="1392.56"/><line class="cls-2" x1="519.78" y1="1259.89" x2="519.78" y2="1392.56"/><line class="cls-3" x1="571.78" y1="1259.59" x2="571.78" y2="1392.26"/><line class="cls-2" x1="710.78" y1="1259.59" x2="710.78" y2="1392.26"/><line class="cls-2" x1="841.04" y1="1326.22" x2="710.78" y2="1326.22"/><line class="cls-2" x1="820.7" y1="1301.37" x2="841.04" y2="1326.22"/><line class="cls-2" x1="820.7" y1="1351.07" x2="841.04" y2="1326.22"/><line class="cls-1" x1="1.5" y1="1443.53" x2="1.5" y2="1571.59"/><line class="cls-1" x1="137.5" y1="1441.33" x2="137.5" y2="1569.39"/><line class="cls-2" x1="175.5" y1="1441.33" x2="175.5" y2="1569.39"/><line class="cls-2" x1="308.5" y1="1441.33" x2="308.5" y2="1569.39"/><line class="cls-1" x1="364.5" y1="1441.33" x2="364.5" y2="1569.39"/><line class="cls-2" x1="458.5" y1="1443.53" x2="458.5" y2="1571.59"/><line class="cls-2" x1="237.71" y1="1620.66" x2="237.71" y2="1751.01"/><line class="cls-2" x1="346.71" y1="1620.66" x2="346.71" y2="1751.01"/><line class="cls-2" x1="396.71" y1="1620.66" x2="396.71" y2="1751.01"/><line class="cls-1" x1="487.9" y1="1620.66" x2="487.9" y2="1751.01"/><line class="cls-2" x1="542.58" y1="1620.66" x2="542.58" y2="1751.01"/><line class="cls-2" x1="677.04" y1="1620.66" x2="677.04" y2="1751.01"/><line class="cls-2" x1="710.78" y1="1620.66" x2="710.78" y2="1751.01"/><line class="cls-2" x1="612.53" y1="1685.84" x2="677.04" y2="1620.66"/><line class="cls-2" x1="612.53" y1="1653.25" x2="612.53" y2="1685.84"/><line class="cls-2" x1="644.78" y1="1685.84" x2="612.2" y2="1685.84"/><line class="cls-2" x1="1083.01" y1="1620.66" x2="1083.01" y2="1751.01"/><line class="cls-2" x1="1214.5" y1="1685.84" x2="1083.01" y2="1685.84"/><line class="cls-2" x1="1107.65" y1="1665.46" x2="1083.01" y2="1685.84"/><line class="cls-2" x1="1107.65" y1="1706.21" x2="1083.01" y2="1685.84"/><line class="cls-2" x1="20.82" y1="1798.23" x2="20.82" y2="1929.86"/><line class="cls-2" x1="140.82" y1="1798.23" x2="140.82" y2="1929.86"/><line class="cls-2" x1="241.82" y1="1798.23" x2="241.82" y2="1929.86"/><line class="cls-2" x1="324.82" y1="1798.23" x2="324.82" y2="1929.86"/><line class="cls-2" x1="391.82" y1="1798.23" x2="391.82" y2="1929.86"/><line class="cls-2" x1="447.82" y1="1798.23" x2="447.82" y2="1929.86"/><line class="cls-2" x1="496.82" y1="1798.23" x2="496.82" y2="1929.86"/><line class="cls-2" x1="537.82" y1="1798.23" x2="537.82" y2="1929.86"/><line class="cls-2" x1="572.78" y1="1798.23" x2="572.78" y2="1929.86"/><line class="cls-2" x1="601.78" y1="1798.23" x2="601.78" y2="1929.86"/><line class="cls-2" x1="625.49" y1="1798.23" x2="625.49" y2="1929.86"/><line class="cls-2" x1="642.49" y1="1798.23" x2="642.49" y2="1929.86"/><line class="cls-2" x1="659.49" y1="1798.23" x2="659.49" y2="1929.86"/><line class="cls-2" x1="670.49" y1="1798.23" x2="670.49" y2="1929.86"/><line class="cls-2" x1="679.49" y1="1798.23" x2="679.49" y2="1929.86"/><line class="cls-2" x1="685.49" y1="1798.23" x2="685.49" y2="1929.86"/><line class="cls-2" x1="1034.54" y1="1798.23" x2="1034.54" y2="1929.86"/><line class="cls-2" x1="690.49" y1="1798.23" x2="690.49" y2="1929.86"/><line class="cls-2" x1="693.49" y1="1798.23" x2="693.49" y2="1929.86"/><line class="cls-2" x1="696.49" y1="1798.23" x2="696.49" y2="1929.86"/><line class="cls-2" x1="699.54" y1="1798.23" x2="699.54" y2="1929.86"/><line class="cls-1" x1="809.54" y1="1798.23" x2="809.54" y2="1929.86"/><line class="cls-2" x1="897.54" y1="1798.23" x2="897.54" y2="1929.86"/><line class="cls-2" x1="949.54" y1="1798.23" x2="949.54" y2="1929.86"/><line class="cls-1" x1="982.47" y1="1977.87" x2="982.47" y2="2106.57"/><line class="cls-1" x1="1069.47" y1="1977.87" x2="1069.47" y2="2106.57"/><line class="cls-2" x1="1166.47" y1="1974.87" x2="1166.47" y2="2103.57"/><line class="cls-2" x1="92.04" y1="357.46" x2="92.04" y2="489.74"/><line class="cls-2" x1="189.47" y1="357.46" x2="189.47" y2="489.74"/><line class="cls-2" x1="240.21" y1="357.46" x2="240.21" y2="489.74"/><line class="cls-2" x1="396.09" y1="357.46" x2="396.09" y2="489.74"/><line class="cls-3" x1="334.54" y1="357.46" x2="334.54" y2="489.74"/><line class="cls-2" x1="178.77" y1="535.89" x2="178.77" y2="669.53"/><line class="cls-2" x1="269.19" y1="535.89" x2="269.19" y2="669.53"/><line class="cls-2" x1="320.07" y1="535.89" x2="320.07" y2="669.53"/><line class="cls-2" x1="418.4" y1="535.89" x2="418.4" y2="669.53"/><line class="cls-2" x1="506.34" y1="535.89" x2="506.34" y2="669.53"/><line class="cls-2" x1="558.02" y1="535.89" x2="558.02" y2="669.53"/><line class="cls-2" x1="595.64" y1="535.89" x2="595.64" y2="669.53"/><line class="cls-2" x1="948.74" y1="535.89" x2="595.64" y2="535.89"/><line class="cls-2" x1="921.16" y1="564.11" x2="595.64" y2="564.11"/><line class="cls-2" x1="815.28" y1="669.35" x2="595.64" y2="669.53"/><line class="cls-2" x1="595.64" y1="570.77" x2="913.59" y2="571.04"/><line class="cls-2" x1="970.01" y1="514.61" x2="784.89" y2="699.73"/><line class="cls-2" x1="1013.88" y1="374.41" x2="893.83" y2="494.46"/><line class="cls-2" x1="1079.88" y1="223.41" x2="959.83" y2="343.46"/><line class="cls-2" x1="1168.88" y1="280.41" x2="1048.83" y2="400.46"/><line class="cls-2" x1="1176.88" y1="382.41" x2="1056.83" y2="502.46"/><line class="cls-2" x1="1145.89" y1="511.16" x2="1025.83" y2="631.22"/><line class="cls-2" x1="516.23" y1="690.48" x2="417.67" y2="775.25"/><line class="cls-2" x1="581.58" y1="766.45" x2="483.03" y2="851.23"/></svg>